<?xml version="1.0" encoding="UTF-8" standalone="no"?>
<svg
   xmlns:dc="http://purl.org/dc/elements/1.1/"
   xmlns:cc="http://creativecommons.org/ns#"
   xmlns:rdf="http://www.w3.org/1999/02/22-rdf-syntax-ns#"
   xmlns:svg="http://www.w3.org/2000/svg"
   xmlns="http://www.w3.org/2000/svg"
   viewBox="0 0 58.462933 82.85347"
   height="82.85347"
   width="58.462933"
   xml:space="preserve"
   version="1.1"
   id="svg2"><metadata
     id="metadata8"><rdf:RDF><cc:Work
         rdf:about=""><dc:format>image/svg+xml</dc:format><dc:type
           rdf:resource="http://purl.org/dc/dcmitype/StillImage" /></cc:Work></rdf:RDF></metadata><defs
     id="defs6"><clipPath
       id="clipPath16"
       clipPathUnits="userSpaceOnUse"><path
         id="path18"
         d="m 0,62.14 43.847,0 L 43.847,0 0,0 0,62.14 Z" /></clipPath></defs><g
     transform="matrix(1.3333333,0,0,-1.3333333,0,82.853467)"
     id="g10"><g
       id="g12"><g
         clip-path="url(#clipPath16)"
         id="g14"><g
           transform="translate(42.4629,39.1743)"
           id="g20"><path
             id="path22"
             style="fill:#eada18;fill-opacity:1;fill-rule:nonzero;stroke:none"
             d="m 0,0 c -1.587,4.099 -4.535,8.018 -8.265,10.377 -3.684,2.334 -7.467,3.714 -9.128,8.153 -0.082,0.214 -0.817,3.217 -0.982,4.436 l -2.165,0 0,-52.672 c 12.108,0 21.924,9.816 21.924,21.924 C 1.384,-5.195 0.928,-2.415 0,0" /></g><g
           transform="translate(19.7612,62.1401)"
           id="g24"><path
             id="path26"
             style="fill:#f4eb45;fill-opacity:1;fill-rule:nonzero;stroke:none"
             d="m 0,0 c -0.166,-1.219 -0.9,-4.222 -0.982,-4.436 -1.66,-4.439 -5.446,-5.818 -9.126,-8.152 -3.729,-2.36 -6.68,-6.279 -8.264,-10.378 -0.934,-2.414 -1.388,-5.195 -1.388,-7.782 0,-12.107 9.815,-21.923 21.922,-21.923 L 2.162,0 0,0 Z" /></g><g
           transform="translate(1.3682,23.0142)"
           id="g28"><path
             id="path30"
             style="fill:#f4eb45;fill-opacity:1;fill-rule:nonzero;stroke:none"
             d="m 0,0 c 1.579,-4.103 4.518,-8.028 8.242,-10.396 3.679,-2.341 7.46,-3.729 9.111,-8.171 0.082,-0.214 0.809,-3.219 0.972,-4.439 l 2.165,-0.004 0.113,52.671 C 8.496,29.687 -1.342,19.892 -1.368,7.785 -1.374,5.198 -0.924,2.416 0,0" /></g><g
           transform="translate(24.0195)"
           id="g32"><path
             id="path34"
             style="fill:#eada18;fill-opacity:1;fill-rule:nonzero;stroke:none"
             d="m 0,0 c 0.169,1.217 0.91,4.221 0.993,4.433 1.669,4.436 5.458,5.807 9.143,8.133 3.734,2.351 6.694,6.264 8.286,10.36 0.939,2.412 1.399,5.192 1.405,7.779 0.026,12.107 -9.769,21.944 -21.875,21.97 L -2.162,0.004 0,0 Z" /></g></g></g><text
       id="text36"
       style="font-variant:normal;font-weight:bold;font-stretch:normal;font-size:28.71960068px;font-family:'PF DinText Pro';-inkscape-font-specification:PFDinTextPro-Bold;writing-mode:lr-tb;fill:#939393;fill-opacity:1;fill-rule:nonzero;stroke:none"
       transform="matrix(1,0,0,-1,12.3081,21.7515)"><tspan
         id="tspan38"
         y="0"
         x="0">А</tspan></text>
</g></svg>