<?xml version="1.0" encoding="UTF-8" standalone="no"?>
<svg
   xmlns:dc="http://purl.org/dc/elements/1.1/"
   xmlns:cc="http://creativecommons.org/ns#"
   xmlns:rdf="http://www.w3.org/1999/02/22-rdf-syntax-ns#"
   xmlns:svg="http://www.w3.org/2000/svg"
   xmlns="http://www.w3.org/2000/svg"
   viewBox="0 0 61.107468 82.843735"
   height="82.843735"
   width="61.107468"
   xml:space="preserve"
   version="1.1"
   id="svg2"><metadata
     id="metadata8"><rdf:RDF><cc:Work
         rdf:about=""><dc:format>image/svg+xml</dc:format><dc:type
           rdf:resource="http://purl.org/dc/dcmitype/StillImage" /></cc:Work></rdf:RDF></metadata><defs
     id="defs6"><clipPath
       id="clipPath16"
       clipPathUnits="userSpaceOnUse"><path
         id="path18"
         d="m 0,62.133 45.831,0 L 45.831,0 0,0 0,62.133 Z" /></clipPath></defs><g
     transform="matrix(1.3333333,0,0,-1.3333333,0,82.843733)"
     id="g10"><g
       id="g12"><g
         clip-path="url(#clipPath16)"
         id="g14"><g
           transform="translate(6.7505,33.4219)"
           id="g20"><path
             id="path22"
             style="fill:#64b044;fill-opacity:1;fill-rule:nonzero;stroke:none"
             d="M 0,0 C -6.542,-15.707 -8.701,-29.748 -4.824,-31.363 L 18.567,23.43 16.823,28.711 C 14.072,21.739 6.542,15.706 0,0" /></g><g
           transform="translate(20.791,27.5742)"
           id="g24"><path
             id="path26"
             style="fill:#52a74a;fill-opacity:1;fill-rule:nonzero;stroke:none"
             d="M 0,0 C 6.541,15.706 8.082,29.955 4.208,31.57 L -18.865,-25.516 C -14.99,-27.131 -6.542,-15.707 0,0" /></g><g
           transform="translate(26.8203,27.418)"
           id="g28"><path
             id="path30"
             style="fill:#64b044;fill-opacity:1;fill-rule:nonzero;stroke:none"
             d="M 0,0 C 5.11,-16.229 12.501,-28.361 16.506,-27.1 L -3.247,34.715 C -4.218,26.538 -5.11,16.228 0,0" /></g><g
           transform="translate(41.3276,31.6699)"
           id="g32"><path
             id="path34"
             style="fill:#52a74a;fill-opacity:1;fill-rule:nonzero;stroke:none"
             d="M 0,0 C -5.11,16.229 -13.788,25.641 -17.754,30.463 L 1.999,-31.67 C 6.003,-30.408 5.109,-16.23 0,0" /></g><g
           transform="translate(19.7642,49.0156)"
           id="g36"><path
             id="path38"
             style="fill:#9eea75;fill-opacity:1;fill-rule:nonzero;stroke:none"
             d="m 0,0 c 0,-1.012 -0.82,-1.833 -1.833,-1.833 -1.012,0 -1.833,0.821 -1.833,1.833 0,1.013 0.821,1.833 1.833,1.833 C -0.82,1.833 0,1.013 0,0" /></g><g
           transform="translate(17.2974,43.9697)"
           id="g40"><path
             id="path42"
             style="fill:#9eea75;fill-opacity:1;fill-rule:nonzero;stroke:none"
             d="m 0,0 c 0,-1.013 -0.82,-1.833 -1.833,-1.833 -1.013,0 -1.834,0.82 -1.834,1.833 0,1.013 0.821,1.833 1.834,1.833 C -0.82,1.833 0,1.013 0,0" /></g><g
           transform="translate(14.6406,39.0356)"
           id="g44"><path
             id="path46"
             style="fill:#9eea75;fill-opacity:1;fill-rule:nonzero;stroke:none"
             d="m 0,0 c 0,-1.012 -0.82,-1.834 -1.833,-1.834 -1.013,0 -1.834,0.822 -1.834,1.834 0,1.013 0.821,1.833 1.834,1.833 C -0.82,1.833 0,1.013 0,0" /></g><g
           transform="translate(12.8076,34.3262)"
           id="g48"><path
             id="path50"
             style="fill:#9eea75;fill-opacity:1;fill-rule:nonzero;stroke:none"
             d="m 0,0 c 0,-1.012 -0.821,-1.834 -1.833,-1.834 -1.013,0 -1.834,0.822 -1.834,1.834 0,1.012 0.821,1.833 1.834,1.833 C -0.821,1.833 0,1.012 0,0" /></g><g
           transform="translate(11.0923,29.3408)"
           id="g52"><path
             id="path54"
             style="fill:#9eea75;fill-opacity:1;fill-rule:nonzero;stroke:none"
             d="m 0,0 c 0,-1.012 -0.821,-1.833 -1.833,-1.833 -1.013,0 -1.834,0.821 -1.834,1.833 0,1.013 0.821,1.833 1.834,1.833 C -0.821,1.833 0,1.013 0,0" /></g><g
           transform="translate(9.2588,24.5195)"
           id="g56"><path
             id="path58"
             style="fill:#9eea75;fill-opacity:1;fill-rule:nonzero;stroke:none"
             d="m 0,0 c 0,-1.012 -0.82,-1.834 -1.833,-1.834 -1.012,0 -1.833,0.822 -1.833,1.834 0,1.012 0.821,1.833 1.833,1.833 C -0.82,1.833 0,1.012 0,0" /></g><g
           transform="translate(7.4258,18.9961)"
           id="g60"><path
             id="path62"
             style="fill:#9eea75;fill-opacity:1;fill-rule:nonzero;stroke:none"
             d="m 0,0 c 0,-1.014 -0.82,-1.834 -1.833,-1.834 -1.013,0 -1.834,0.82 -1.834,1.834 0,1.012 0.821,1.832 1.834,1.832 C -0.82,1.832 0,1.012 0,0" /></g><g
           transform="translate(5.5928,13.3887)"
           id="g64"><path
             id="path66"
             style="fill:#9eea75;fill-opacity:1;fill-rule:nonzero;stroke:none"
             d="m 0,0 c 0,-1.014 -0.821,-1.832 -1.833,-1.832 -1.013,0 -1.834,0.818 -1.834,1.832 0,1.012 0.821,1.834 1.834,1.834 C -0.821,1.834 0,1.012 0,0" /></g></g></g><text
       id="text68"
       style="font-variant:normal;font-weight:bold;font-stretch:normal;font-size:28.71960068px;font-family:'PF DinText Pro';-inkscape-font-specification:PFDinTextPro-Bold;writing-mode:lr-tb;fill:#cecece;fill-opacity:1;fill-rule:nonzero;stroke:none"
       transform="matrix(1,0,0,-1,8.3228,23.9609)"><tspan
         id="tspan70"
         y="0"
         x="0 15.422425">В1</tspan></text>
</g></svg>