<?xml version="1.0" encoding="UTF-8" standalone="no"?>
<svg
   xmlns:dc="http://purl.org/dc/elements/1.1/"
   xmlns:cc="http://creativecommons.org/ns#"
   xmlns:rdf="http://www.w3.org/1999/02/22-rdf-syntax-ns#"
   xmlns:svg="http://www.w3.org/2000/svg"
   xmlns="http://www.w3.org/2000/svg"
   viewBox="0 0 58.789623 76.734001"
   height="76.734001"
   width="58.789623"
   xml:space="preserve"
   version="1.1"
   id="svg2"><metadata
     id="metadata8"><rdf:RDF><cc:Work
         rdf:about=""><dc:format>image/svg+xml</dc:format><dc:type
           rdf:resource="http://purl.org/dc/dcmitype/StillImage" /></cc:Work></rdf:RDF></metadata><defs
     id="defs6"><clipPath
       id="clipPath16"
       clipPathUnits="userSpaceOnUse"><path
         id="path18"
         d="m 0,61.387 47.032,0 L 47.032,0 0,0 0,61.387 Z" /></clipPath></defs><g
     transform="matrix(1.25,0,0,-1.25,0,76.734)"
     id="g10"><g
       id="g12"><g
         clip-path="url(#clipPath16)"
         id="g14"><g
           transform="translate(14.2754,56.457)"
           id="g20"><path
             id="path22"
             style="fill:#ededed;fill-opacity:1;fill-rule:nonzero;stroke:none"
             d="m 0,0 c -5.609,-5.557 -11.039,-15.878 -12.763,-21.965 -1.017,-3.584 -1.512,-7.715 -1.512,-11.555 0,-17.98 10.691,-22.937 23.878,-22.937 l 0,61.339 C 9.603,4.882 5.817,5.764 0,0" /></g><g
           transform="translate(32.8955,56.457)"
           id="g24"><path
             id="path26"
             style="fill:#dddddd;fill-opacity:1;fill-rule:nonzero;stroke:none"
             d="m 0,0 c 5.555,-5.557 10.931,-15.878 12.639,-21.965 1.007,-3.584 1.497,-7.715 1.497,-11.555 0,-17.98 -10.587,-22.937 -23.645,-22.937 l 0,61.288 c 0,0 3.749,0.933 9.509,-4.831" /></g><g
           transform="translate(37.6719,17.1309)"
           id="g28"><path
             id="path30"
             style="fill:#f9d641;fill-opacity:1;fill-rule:nonzero;stroke:none"
             d="m 0,0 c 0,-7.891 -6.396,-14.285 -14.286,-14.285 -7.89,0 -14.285,6.394 -14.285,14.285 0,7.889 6.395,14.285 14.285,14.285 C -6.396,14.285 0,7.889 0,0" /></g></g></g><text
       id="text32"
       style="font-variant:normal;font-weight:bold;font-stretch:normal;font-size:28.71960068px;font-family:'PF DinText Pro';-inkscape-font-specification:PFDinTextPro-Bold;writing-mode:lr-tb;fill:#939393;fill-opacity:1;fill-rule:nonzero;stroke:none"
       transform="matrix(1,0,0,-1,2.2676,11.3135)"><tspan
         id="tspan34"
         y="0"
         x="0 15.422425 28.346245">В12</tspan></text>
</g></svg>