<?xml version="1.0" encoding="UTF-8" standalone="no"?>
<svg
   xmlns:dc="http://purl.org/dc/elements/1.1/"
   xmlns:cc="http://creativecommons.org/ns#"
   xmlns:rdf="http://www.w3.org/1999/02/22-rdf-syntax-ns#"
   xmlns:svg="http://www.w3.org/2000/svg"
   xmlns="http://www.w3.org/2000/svg"
   viewBox="0 0 78.554626 76.082123"
   height="76.082123"
   width="78.554626"
   xml:space="preserve"
   version="1.1"
   id="svg2"><metadata
     id="metadata8"><rdf:RDF><cc:Work
         rdf:about=""><dc:format>image/svg+xml</dc:format><dc:type
           rdf:resource="http://purl.org/dc/dcmitype/StillImage" /></cc:Work></rdf:RDF></metadata><defs
     id="defs6"><clipPath
       id="clipPath16"
       clipPathUnits="userSpaceOnUse"><path
         id="path18"
         d="m 0,60.866 62.844,0 L 62.844,0 0,0 0,60.866 Z" /></clipPath></defs><g
     transform="matrix(1.25,0,0,-1.25,0,76.082125)"
     id="g10"><g
       id="g12"><g
         clip-path="url(#clipPath16)"
         id="g14"><g
           transform="translate(48.0957,32.9595)"
           id="g20"><path
             id="path22"
             style="fill:#5f9653;fill-opacity:1;fill-rule:nonzero;stroke:none"
             d="m 0,0 c -0.468,-0.653 -0.791,-1.377 -0.957,-2.131 l -0.931,1.049 -2.811,3.566 c 0,0 5.131,-7.968 -11.326,-21.558 l 1.994,-2.003 0.344,-0.345 1.112,-1.12 c 0,0 6.654,8.702 12.575,12.261 L 0,0 Z" /></g><g
           transform="translate(60.4858,32.0449)"
           id="g24"><path
             id="path26"
             style="fill:#5f9653;fill-opacity:1;fill-rule:nonzero;stroke:none"
             d="M 0,0 C 0.112,0.461 0.072,0.98 -0.148,1.473 -0.626,2.546 -1.772,3.077 -2.706,2.66 -2.836,2.602 -2.955,2.525 -3.066,2.438 -3.075,2.444 -3.082,2.448 -3.095,2.454 -3.126,2.592 -3.174,2.731 -3.232,2.867 -3.711,3.939 -4.858,4.471 -5.792,4.053 -6.117,3.909 -6.374,3.666 -6.549,3.365 -6.577,3.608 -6.638,3.851 -6.744,4.087 -6.949,4.549 -7.28,4.91 -7.661,5.139 c 0.208,0.518 0.203,1.156 -0.063,1.751 -0.476,1.071 -1.623,1.604 -2.558,1.186 -0.047,-0.02 -0.093,-0.048 -0.139,-0.071 -0.015,0.279 -0.08,0.565 -0.203,0.844 -0.478,1.07 -1.625,1.602 -2.56,1.187 -0.417,-0.187 -0.718,-0.531 -0.887,-0.951 -0.558,0.482 -1.303,0.65 -1.95,0.362 -0.781,-0.348 -1.166,-1.245 -0.994,-2.156 -0.186,-0.014 -0.372,-0.06 -0.55,-0.139 -0.932,-0.416 -1.302,-1.623 -0.823,-2.694 0.024,-0.054 0.05,-0.106 0.076,-0.158 -0.468,-0.565 -0.581,-1.439 -0.225,-2.237 0.16,-0.359 0.397,-0.654 0.671,-0.877 -0.395,-0.563 -0.474,-1.379 -0.14,-2.125 0.282,-0.637 0.801,-1.079 1.368,-1.249 -0.019,-0.132 -0.041,-0.266 -0.062,-0.4 -0.346,-2.232 -1.422,-4.15 -2.841,-5.773 l 1.469,-3.453 c 1.042,1.197 2.005,2.368 2.845,3.422 0.03,-0.101 0.064,-0.2 0.107,-0.298 0.479,-1.072 1.624,-1.604 2.558,-1.187 0.085,0.038 0.161,0.082 0.236,0.132 0.023,-0.249 0.087,-0.503 0.197,-0.747 0.478,-1.073 1.623,-1.604 2.557,-1.185 0.009,0.004 0.021,0.008 0.027,0.013 0.549,-0.846 1.547,-1.228 2.379,-0.858 0.5,0.224 0.836,0.677 0.97,1.215 0.446,-0.191 0.939,-0.211 1.386,-0.011 0.818,0.365 1.204,1.339 0.964,2.294 0.529,-0.364 1.181,-0.465 1.754,-0.209 0.675,0.301 1.053,1.013 1.031,1.791 0.376,-0.104 0.78,-0.089 1.144,0.075 0.937,0.415 1.305,1.623 0.826,2.694 -0.092,0.21 -0.214,0.4 -0.353,0.565 0.103,0.023 0.2,0.052 0.299,0.095 0.937,0.416 1.302,1.627 0.825,2.699 C 1.345,-0.565 0.686,-0.082 0,0" /></g><g
           transform="translate(61.6685,33.8921)"
           id="g28"><path
             id="path30"
             style="fill:#5f9653;fill-opacity:1;fill-rule:nonzero;stroke:none"
             d="M 0,0 C 0.255,0.399 0.385,0.906 0.334,1.442 0.227,2.611 -0.685,3.484 -1.701,3.392 -1.845,3.377 -1.983,3.343 -2.114,3.296 -2.121,3.304 -2.128,3.312 -2.137,3.32 c 0.012,0.141 0.014,0.288 0,0.436 -0.106,1.17 -1.019,2.041 -2.039,1.948 -0.354,-0.032 -0.675,-0.179 -0.938,-0.406 0.053,0.238 0.071,0.486 0.048,0.746 -0.046,0.502 -0.24,0.951 -0.529,1.29 0.365,0.425 0.566,1.03 0.507,1.678 -0.106,1.168 -1.02,2.042 -2.037,1.948 -0.054,-0.004 -0.106,-0.014 -0.156,-0.024 0.075,0.27 0.105,0.564 0.077,0.866 -0.107,1.169 -1.02,2.04 -2.037,1.948 -0.457,-0.042 -0.854,-0.271 -1.147,-0.614 -0.373,0.639 -1.025,1.038 -1.73,0.972 -0.851,-0.078 -1.504,-0.803 -1.635,-1.72 -0.181,0.047 -0.372,0.063 -0.566,0.047 -1.016,-0.094 -1.755,-1.116 -1.65,-2.285 0.007,-0.06 0.015,-0.116 0.022,-0.174 -0.624,-0.384 -1.014,-1.175 -0.934,-2.046 0.035,-0.391 0.162,-0.746 0.352,-1.047 -0.555,-0.405 -0.896,-1.152 -0.821,-1.966 0.064,-0.694 0.413,-1.278 0.893,-1.624 -0.06,-0.118 -0.121,-0.236 -0.185,-0.357 -1.047,-2.001 -2.683,-3.47 -4.551,-4.548 l 0.275,-3.743 c 1.373,0.798 2.664,1.595 3.798,2.323 -0.005,-0.105 -0.005,-0.211 0.005,-0.318 0.108,-1.17 1.02,-2.041 2.04,-1.948 0.093,0.008 0.178,0.025 0.266,0.049 -0.056,-0.243 -0.08,-0.502 -0.056,-0.771 0.108,-1.17 1.021,-2.042 2.039,-1.947 0.01,10e-4 0.021,0.002 0.031,0.005 0.245,-0.979 1.068,-1.663 1.973,-1.58 0.546,0.049 1.011,0.371 1.308,0.837 0.364,-0.323 0.825,-0.503 1.312,-0.456 0.891,0.081 1.57,0.879 1.65,1.86 0.384,-0.515 0.969,-0.822 1.594,-0.765 0.735,0.07 1.324,0.621 1.552,1.364 0.325,-0.22 0.709,-0.336 1.111,-0.298 1.019,0.091 1.756,1.115 1.65,2.284 -0.022,0.229 -0.075,0.446 -0.152,0.647 0.105,-0.011 0.206,-0.015 0.313,-0.005 1.019,0.093 1.757,1.119 1.649,2.288 C 1.089,-0.968 0.623,-0.299 0,0" /></g><path
           id="path32"
           style="fill:#64b044;fill-opacity:1;fill-rule:nonzero;stroke:none"
           d="m 37.682,10.677 -9.618,0 0,12.625 9.618,0 0,-12.625 z" /><g
           transform="translate(32.7969,19.5215)"
           id="g34"><path
             id="path36"
             style="fill:#5f9653;fill-opacity:1;fill-rule:nonzero;stroke:none"
             d="m 0,0 4.585,-0.036 c 0,0 -1.199,13.694 5.805,19.608 L 6.758,21.155 0,0 Z" /></g><g
           transform="translate(50.4307,46.6289)"
           id="g38"><path
             id="path40"
             style="fill:#5f9653;fill-opacity:1;fill-rule:nonzero;stroke:none"
             d="m 0,0 0,0.025 c 0.29,0.323 0.47,0.747 0.475,1.214 0.008,0.752 -0.432,1.401 -1.07,1.699 0.036,0.143 0.06,0.292 0.062,0.446 0.01,1.024 -0.809,1.862 -1.832,1.873 C -2.619,5.26 -2.863,5.211 -3.084,5.122 -3.156,5.874 -3.682,6.497 -4.389,6.709 -4.268,6.951 -4.194,7.226 -4.19,7.517 -4.179,8.54 -4.999,9.379 -6.022,9.39 -6.226,9.393 -6.42,9.361 -6.606,9.303 c 0,0 0.002,10e-4 0.002,0.003 0.011,1.022 -0.808,1.859 -1.833,1.872 -0.371,0.003 -0.719,-0.104 -1.012,-0.291 -0.281,0.655 -0.927,1.118 -1.685,1.126 -0.004,10e-4 -0.006,0 -0.011,0 -0.091,0.926 -0.868,1.657 -1.822,1.668 -0.484,0.004 -0.925,-0.179 -1.261,-0.479 -0.299,0.605 -0.917,1.027 -1.641,1.035 -0.898,0.011 -1.66,-0.627 -1.831,-1.479 -0.298,0.208 -0.657,0.331 -1.045,0.336 -0.452,0.005 -0.867,-0.152 -1.191,-0.415 -0.284,0.639 -0.921,1.089 -1.67,1.098 -0.964,0.01 -1.765,-0.721 -1.861,-1.661 -0.116,0.024 -0.238,0.038 -0.361,0.039 -1.023,0.011 -1.86,-0.809 -1.872,-1.833 0,-0.189 0.024,-0.373 0.078,-0.546 -0.318,0.264 -0.724,0.425 -1.168,0.43 -0.753,0.008 -1.404,-0.435 -1.7,-1.077 -0.276,0.164 -0.59,0.261 -0.933,0.266 -0.944,0.009 -1.731,-0.69 -1.854,-1.606 -0.867,-0.145 -1.537,-0.893 -1.547,-1.804 -0.003,-0.307 0.071,-0.598 0.199,-0.853 -0.625,-0.292 -1.064,-0.921 -1.074,-1.66 -0.009,-1.021 0.809,-1.858 1.832,-1.871 0.173,-0.002 0.339,0.022 0.498,0.065 0.789,-1.671 2.478,-2.838 4.452,-2.859 2.458,-0.029 4.517,1.73 4.95,4.066 0.374,-0.095 0.762,-0.146 1.164,-0.151 0.907,-0.011 1.759,0.225 2.496,0.641 0.728,-0.432 1.575,-0.687 2.484,-0.697 0.584,-0.006 1.147,0.089 1.672,0.27 0.865,-1.416 2.416,-2.37 4.195,-2.39 0.008,0.001 0.013,0.001 0.021,0.001 -0.015,-0.145 -0.023,-0.289 -0.023,-0.435 -0.031,-2.751 2.172,-5.005 4.922,-5.036 0.579,-0.007 1.137,0.088 1.659,0.264 0.181,-0.065 0.376,-0.102 0.583,-0.104 0.904,-0.009 1.666,0.634 1.835,1.49 0.797,0.201 1.394,0.914 1.401,1.775 0.007,0.471 -0.165,0.902 -0.453,1.231 C -0.004,-0.178 0,-0.09 0,0" /></g><g
           transform="translate(47.3594,44.6699)"
           id="g42"><path
             id="path44"
             style="fill:#64a74a;fill-opacity:1;fill-rule:nonzero;stroke:none"
             d="M 0,0 C 0.387,0.335 0.637,0.827 0.642,1.38 0.654,2.404 -0.167,3.241 -1.19,3.251 -1.662,3.257 -2.094,3.082 -2.425,2.794 c 0.108,0.229 0.166,0.484 0.17,0.751 0.01,1.023 -0.809,1.861 -1.833,1.871 -0.159,0.003 -0.313,-0.017 -0.46,-0.054 0.036,0.145 0.058,0.293 0.06,0.448 0.012,1.023 -0.807,1.861 -1.829,1.872 -0.224,0.003 -0.437,-0.036 -0.637,-0.104 0.104,0.226 0.163,0.476 0.166,0.74 0.014,1.024 -0.808,1.862 -1.829,1.873 -0.279,0.004 -0.542,-0.057 -0.781,-0.165 -0.021,0.997 -0.829,1.804 -1.829,1.815 -1.026,0.013 -1.862,-0.808 -1.874,-1.83 -0.002,-0.08 0.004,-0.158 0.015,-0.234 -0.083,0.011 -0.165,0.021 -0.249,0.021 -1.024,0.013 -1.862,-0.807 -1.872,-1.831 -0.008,-0.514 0.199,-0.982 0.534,-1.322 -0.244,-0.364 -0.443,-0.761 -0.587,-1.185 -1.505,-1.052 -2.494,-2.788 -2.517,-4.762 -0.013,-1.17 0.316,-2.26 0.893,-3.184 l -1.398,0.097 -4.504,0.575 c 0,0 9.242,-2.09 7.024,-23.317 l 2.828,-0.033 0.486,-0.005 1.579,-0.018 c 0,0 -1.52,12.221 0.723,18.72 0.295,0.198 0.532,0.48 0.672,0.812 0.062,-0.007 0.13,-0.012 0.196,-0.012 0.013,0 0.026,0.002 0.038,0.002 0.164,-0.844 0.903,-1.487 1.799,-1.498 0.466,-0.006 0.892,0.164 1.22,0.447 0.324,-0.29 0.745,-0.469 1.21,-0.474 0.766,-0.008 1.429,0.449 1.717,1.109 0.123,0.063 0.238,0.132 0.355,0.206 0.056,-0.005 0.114,-0.009 0.173,-0.009 1.022,-0.012 1.861,0.808 1.872,1.83 0.003,0.172 -0.02,0.337 -0.064,0.494 0.097,-0.017 0.194,-0.024 0.295,-0.025 1.021,-0.013 1.861,0.806 1.871,1.829 C 1.216,-0.953 0.712,-0.264 0,0" /></g><g
           transform="translate(35.416,42.7383)"
           id="g46"><path
             id="path48"
             style="fill:#64b044;fill-opacity:1;fill-rule:nonzero;stroke:none"
             d="m 0,0 c 0.006,0.547 -0.228,1.042 -0.604,1.385 0.314,0.328 0.509,0.768 0.512,1.257 0.014,0.895 -0.616,1.652 -1.46,1.83 0.479,0.33 0.8,0.883 0.806,1.509 0.008,0.739 -0.418,1.38 -1.04,1.684 0.221,0.3 0.353,0.671 0.359,1.072 0.014,1.024 -0.809,1.862 -1.83,1.873 -0.199,0.002 -0.392,-0.028 -0.574,-0.084 0.018,0.1 0.032,0.203 0.032,0.309 0.012,1.023 -0.808,1.862 -1.833,1.873 -0.715,0.008 -1.337,-0.39 -1.652,-0.978 -0.324,0.291 -0.749,0.472 -1.218,0.478 -1.023,0.011 -1.863,-0.809 -1.873,-1.831 -10e-4,-0.144 0.014,-0.282 0.043,-0.419 -0.006,-0.007 -0.014,-0.012 -0.019,-0.02 -0.124,0.028 -0.251,0.043 -0.38,0.044 -1.024,0.011 -1.863,-0.808 -1.873,-1.831 -0.004,-0.356 0.092,-0.69 0.266,-0.976 -0.201,0.077 -0.414,0.123 -0.642,0.124 -0.438,0.005 -0.844,-0.144 -1.164,-0.396 -0.335,0.406 -0.842,0.667 -1.408,0.673 -1.022,0.012 -1.863,-0.807 -1.872,-1.829 0,-0.054 0.003,-0.106 0.005,-0.157 -0.227,0.101 -0.477,0.162 -0.742,0.164 -1.022,0.012 -1.861,-0.808 -1.871,-1.83 -0.007,-0.458 0.155,-0.878 0.427,-1.204 -0.587,-0.305 -0.993,-0.914 -1,-1.624 -0.01,-0.851 0.561,-1.575 1.342,-1.798 -0.056,-0.175 -0.091,-0.365 -0.092,-0.559 -0.012,-1.022 0.808,-1.861 1.831,-1.873 0.05,0 0.102,0.003 0.152,0.007 0.275,-0.662 0.927,-1.13 1.688,-1.138 0.342,-0.004 0.662,0.086 0.937,0.246 0.302,-0.596 0.918,-1.008 1.63,-1.015 0.605,-0.007 1.144,0.28 1.489,0.725 0.096,-0.074 0.194,-0.148 0.293,-0.223 6.606,-5.018 4.859,-18.667 4.859,-18.667 l 5.326,-0.033 c 0.114,4.898 -2.873,12.641 -5.059,17.621 0.09,-0.014 0.184,-0.025 0.275,-0.025 1.024,-0.012 1.862,0.808 1.874,1.831 0,0.093 -0.006,0.181 -0.02,0.269 0.207,-0.08 0.431,-0.13 0.662,-0.132 1.024,-0.011 1.862,0.809 1.873,1.833 0.002,0.009 0,0.019 0,0.029 C -0.675,-1.662 -0.01,-0.913 0,0" /></g><g
           transform="translate(30.3652,10.4209)"
           id="g50"><path
             id="path52"
             style="fill:#5f9653;fill-opacity:1;fill-rule:nonzero;stroke:none"
             d="m 0,0 3.944,2.339 c 0,0 -8.108,11.103 -5.168,19.785 L -5.15,21.602 0,0 Z" /></g><g
           transform="translate(31.4463,42.7412)"
           id="g54"><path
             id="path56"
             style="fill:#5f9653;fill-opacity:1;fill-rule:nonzero;stroke:none"
             d="M 0,0 C -0.001,0.006 -0.006,0.015 -0.011,0.021 0.07,0.447 0.003,0.904 -0.234,1.307 -0.616,1.953 -1.326,2.282 -2.027,2.206 -2.069,2.349 -2.126,2.489 -2.205,2.621 -2.724,3.503 -3.858,3.797 -4.739,3.278 -4.958,3.148 -5.142,2.981 -5.286,2.791 -5.738,3.397 -6.511,3.657 -7.224,3.475 -7.245,3.746 -7.325,4.018 -7.472,4.268 -7.99,5.15 -9.127,5.444 -10.009,4.926 -10.182,4.822 -10.333,4.694 -10.461,4.55 c 0,0 0,0.001 -0.002,0.002 -0.516,0.882 -1.652,1.175 -2.536,0.655 -0.32,-0.19 -0.565,-0.461 -0.718,-0.772 -0.577,0.416 -1.369,0.478 -2.023,0.094 -0.004,-0.002 -0.006,-0.005 -0.007,-0.007 -0.561,0.747 -1.6,0.97 -2.423,0.486 -0.417,-0.245 -0.702,-0.632 -0.832,-1.062 -0.57,0.365 -1.319,0.406 -1.94,0.039 -0.778,-0.458 -1.096,-1.395 -0.807,-2.215 -0.359,0.025 -0.73,-0.054 -1.064,-0.251 -0.39,-0.229 -0.664,-0.576 -0.806,-0.97 -0.575,0.4 -1.352,0.456 -1.996,0.078 -0.831,-0.491 -1.138,-1.53 -0.734,-2.386 -0.114,-0.04 -0.223,-0.092 -0.328,-0.152 -0.883,-0.52 -1.178,-1.654 -0.656,-2.537 0.096,-0.165 0.212,-0.308 0.345,-0.43 -0.406,0.064 -0.837,-0.008 -1.22,-0.234 -0.648,-0.382 -0.977,-1.098 -0.899,-1.799 -0.318,-0.004 -0.641,-0.083 -0.933,-0.256 -0.816,-0.479 -1.129,-1.486 -0.759,-2.332 -0.669,-0.573 -0.854,-1.558 -0.39,-2.345 0.155,-0.263 0.367,-0.475 0.61,-0.627 -0.385,-0.574 -0.438,-1.338 -0.062,-1.975 0.519,-0.881 1.652,-1.174 2.536,-0.657 0.149,0.088 0.278,0.195 0.393,0.313 1.54,-1.022 3.588,-1.147 5.289,-0.145 2.116,1.246 2.973,3.816 2.136,6.039 0.366,0.113 0.726,0.268 1.073,0.472 0.78,0.461 1.39,1.102 1.804,1.839 0.849,0.007 1.704,0.226 2.487,0.689 0.505,0.296 0.937,0.669 1.294,1.093 1.47,-0.764 3.291,-0.779 4.826,0.124 0.005,0.003 0.011,0.008 0.018,0.012 0.062,-0.131 0.128,-0.261 0.203,-0.387 1.396,-2.369 4.448,-3.16 6.816,-1.765 0.5,0.295 0.93,0.663 1.285,1.084 0.189,0.039 0.377,0.108 0.551,0.212 0.782,0.46 1.101,1.403 0.802,2.225 0.579,0.582 0.721,1.502 0.284,2.245 C 0.917,-0.649 0.548,-0.369 0.13,-0.235 0.089,-0.156 0.047,-0.078 0,0" /></g><g
           transform="translate(29.8301,39.4761)"
           id="g58"><path
             id="path60"
             style="fill:#64a74a;fill-opacity:1;fill-rule:nonzero;stroke:none"
             d="M 0,0 C 0.159,0.487 0.117,1.037 -0.163,1.513 -0.683,2.395 -1.817,2.688 -2.698,2.17 -3.104,1.93 -3.386,1.557 -3.519,1.139 -3.548,1.391 -3.628,1.639 -3.763,1.869 -4.281,2.75 -5.417,3.044 -6.297,2.524 -6.434,2.445 -6.557,2.346 -6.665,2.239 -6.708,2.381 -6.767,2.52 -6.846,2.654 -7.364,3.537 -8.5,3.829 -9.378,3.311 -9.57,3.197 -9.733,3.056 -9.867,2.893 c -0.03,0.246 -0.109,0.492 -0.242,0.72 -0.52,0.882 -1.654,1.176 -2.536,0.657 -0.241,-0.141 -0.435,-0.33 -0.582,-0.544 -0.534,0.841 -1.64,1.116 -2.504,0.607 -0.881,-0.519 -1.178,-1.655 -0.657,-2.536 0.04,-0.068 0.084,-0.131 0.131,-0.192 -0.075,-0.032 -0.15,-0.067 -0.223,-0.109 -0.882,-0.52 -1.177,-1.654 -0.655,-2.536 0.26,-0.444 0.677,-0.738 1.141,-0.856 -0.023,-0.437 0.013,-0.881 0.11,-1.317 -0.744,-1.678 -0.696,-3.675 0.305,-5.378 0.595,-1.008 1.441,-1.771 2.411,-2.264 l -1.247,-0.639 -4.153,-1.837 c 0,0 8.992,2.989 18.068,-16.33 l 2.437,1.434 0.418,0.247 1.362,0.801 c 0,0 -7.619,9.676 -9.058,16.399 0.151,0.322 0.206,0.685 0.155,1.042 0.059,0.028 0.119,0.057 0.173,0.091 0.012,0.007 0.021,0.017 0.034,0.023 0.576,-0.639 1.54,-0.807 2.311,-0.355 0.402,0.237 0.679,0.603 0.815,1.013 0.427,-0.079 0.88,-0.015 1.281,0.223 0.661,0.388 0.991,1.122 0.9,1.835 0.068,0.117 0.132,0.236 0.193,0.361 0.051,0.024 0.103,0.05 0.155,0.08 0.881,0.518 1.173,1.654 0.656,2.534 -0.086,0.148 -0.192,0.278 -0.309,0.392 0.089,0.035 0.177,0.077 0.264,0.127 0.881,0.519 1.173,1.655 0.657,2.535 C 1.536,-0.186 0.749,0.142 0,0" /></g><g
           transform="translate(20.6064,31.6479)"
           id="g62"><path
             id="path64"
             style="fill:#64b044;fill-opacity:1;fill-rule:nonzero;stroke:none"
             d="m 0,0 c -0.278,0.473 -0.737,0.775 -1.234,0.875 0.099,0.442 0.038,0.921 -0.209,1.34 -0.457,0.774 -1.384,1.096 -2.199,0.813 0.241,0.531 0.228,1.168 -0.088,1.708 -0.374,0.637 -1.072,0.965 -1.761,0.903 0.034,0.372 -0.043,0.758 -0.247,1.104 -0.517,0.882 -1.655,1.175 -2.536,0.656 -0.172,-0.1 -0.321,-0.226 -0.447,-0.368 -0.036,0.096 -0.078,0.19 -0.134,0.281 -0.519,0.882 -1.652,1.177 -2.535,0.657 -0.616,-0.362 -0.943,-1.025 -0.908,-1.691 -0.427,0.082 -0.888,0.017 -1.292,-0.221 -0.882,-0.52 -1.175,-1.654 -0.659,-2.536 0.075,-0.123 0.16,-0.233 0.257,-0.335 -0.005,-0.009 -0.006,-0.019 -0.01,-0.029 -0.116,-0.04 -0.234,-0.092 -0.347,-0.157 -0.88,-0.519 -1.175,-1.655 -0.657,-2.537 0.182,-0.306 0.442,-0.541 0.733,-0.696 -0.211,-0.039 -0.417,-0.11 -0.612,-0.226 -0.38,-0.222 -0.649,-0.561 -0.795,-0.941 -0.493,0.173 -1.062,0.135 -1.552,-0.153 -0.88,-0.517 -1.174,-1.654 -0.656,-2.534 0.026,-0.046 0.056,-0.089 0.089,-0.131 -0.25,-0.03 -0.495,-0.108 -0.724,-0.242 -0.881,-0.52 -1.173,-1.655 -0.657,-2.535 0.233,-0.396 0.588,-0.671 0.99,-0.81 -0.345,-0.564 -0.376,-1.296 -0.016,-1.906 0.432,-0.734 1.293,-1.059 2.08,-0.846 0.039,-0.181 0.11,-0.358 0.21,-0.526 0.517,-0.881 1.652,-1.175 2.533,-0.656 0.045,0.025 0.086,0.054 0.128,0.085 0.577,-0.426 1.377,-0.489 2.031,-0.104 0.295,0.175 0.523,0.417 0.675,0.695 0.569,-0.353 1.31,-0.387 1.922,-0.026 0.522,0.308 0.836,0.833 0.898,1.391 0.121,-0.013 0.244,-0.027 0.366,-0.04 8.251,-0.882 13.81,-13.468 13.81,-13.468 l 4.575,2.722 c -2.431,4.254 -8.994,9.34 -13.438,12.473 0.086,0.034 0.169,0.073 0.25,0.119 0.88,0.52 1.175,1.657 0.657,2.535 -0.048,0.083 -0.1,0.156 -0.156,0.224 0.218,0.035 0.434,0.11 0.637,0.228 0.879,0.52 1.174,1.654 0.656,2.536 -0.007,0.01 -0.013,0.019 -0.018,0.025 C 0.278,-1.771 0.461,-0.785 0,0" /></g><g
           transform="translate(60.0405,40.1743)"
           id="g66"><path
             id="path68"
             style="fill:#64a74a;fill-opacity:1;fill-rule:nonzero;stroke:none"
             d="m 0,0 c -0.14,0.141 -0.299,0.254 -0.469,0.34 0.085,0.06 0.165,0.125 0.241,0.2 0.725,0.721 0.728,1.894 0.006,2.618 -0.504,0.509 -1.229,0.66 -1.866,0.462 -0.024,0.435 -0.203,0.862 -0.533,1.196 -0.723,0.724 -1.897,0.727 -2.621,0.007 -0.1,-0.103 -0.184,-0.214 -0.26,-0.331 -0.01,0 -0.02,0.002 -0.03,0 -0.066,0.106 -0.149,0.205 -0.239,0.297 -0.723,0.726 -1.896,0.728 -2.62,0.006 -0.253,-0.252 -0.417,-0.56 -0.492,-0.882 -0.09,0.195 -0.213,0.378 -0.371,0.538 -0.311,0.311 -0.705,0.489 -1.109,0.533 0.043,0.524 -0.133,1.065 -0.532,1.467 -0.724,0.725 -1.896,0.729 -2.62,0.007 -0.038,-0.038 -0.072,-0.077 -0.105,-0.116 -0.091,0.231 -0.228,0.45 -0.413,0.637 -0.723,0.725 -1.896,0.728 -2.619,0.006 -0.326,-0.323 -0.502,-0.736 -0.538,-1.158 -0.635,0.194 -1.351,0.043 -1.852,-0.457 -0.604,-0.602 -0.706,-1.517 -0.303,-2.224 -0.163,-0.086 -0.32,-0.197 -0.459,-0.335 -0.722,-0.721 -0.724,-1.893 -0.004,-2.618 0.037,-0.035 0.074,-0.069 0.113,-0.102 -0.267,-0.666 -0.132,-1.455 0.404,-1.994 0.244,-0.243 0.535,-0.402 0.843,-0.483 -0.201,-0.637 -0.051,-1.361 0.452,-1.866 0.428,-0.431 1.013,-0.602 1.57,-0.526 0.019,-0.119 0.035,-0.24 0.052,-0.364 1.076,-7.379 -7.542,-14.996 -9.3,-16.467 l -0.315,0.365 -0.83,-7.377 4.605,3 c 3.516,3.414 6.812,11.033 8.739,16.118 0.058,-0.075 0.115,-0.146 0.181,-0.213 0.721,-0.725 1.896,-0.727 2.62,-0.006 0.067,0.068 0.123,0.135 0.176,0.206 0.091,-0.202 0.215,-0.392 0.379,-0.558 0.722,-0.725 1.895,-0.728 2.62,-0.006 0.008,0.007 0.015,0.016 0.019,0.022 0.723,-0.505 1.724,-0.438 2.368,0.204 0.39,0.387 0.569,0.905 0.541,1.414 0.452,0.014 0.901,0.19 1.246,0.536 0.637,0.633 0.718,1.612 0.241,2.33 0.574,-0.102 1.188,0.069 1.632,0.511 0.525,0.522 0.668,1.278 0.438,1.93 0.369,0.059 0.724,0.23 1.007,0.513 C 0.721,-1.898 0.722,-0.725 0,0" /></g><g
           transform="translate(47.394,24.4922)"
           id="g70"><path
             id="path72"
             style="fill:#64b044;fill-opacity:1;fill-rule:nonzero;stroke:none"
             d="M 0,0 C 0.389,0.386 0.568,0.905 0.539,1.414 0.995,1.428 1.443,1.604 1.788,1.949 2.424,2.581 2.506,3.561 2.027,4.28 2.602,4.177 3.216,4.348 3.661,4.79 4.186,5.311 4.33,6.067 4.098,6.722 4.466,6.779 4.823,6.95 5.106,7.234 c 0.725,0.721 0.73,1.894 0.006,2.619 -0.141,0.141 -0.299,0.255 -0.468,0.34 0.083,0.06 0.164,0.125 0.239,0.201 0.728,0.72 0.729,1.894 0.008,2.619 -0.505,0.507 -1.229,0.66 -1.867,0.46 -0.024,0.434 -0.203,0.862 -0.533,1.196 -0.723,0.724 -1.894,0.728 -2.62,0.006 -0.1,-0.1 -0.188,-0.213 -0.261,-0.331 -0.01,0.003 -0.02,0.003 -0.03,0.003 -0.07,0.105 -0.147,0.204 -0.239,0.297 -0.723,0.724 -1.896,0.727 -2.62,0.005 -0.253,-0.251 -0.417,-0.559 -0.494,-0.883 -0.089,0.195 -0.209,0.378 -0.371,0.537 -0.31,0.313 -0.703,0.49 -1.107,0.535 0.045,0.525 -0.132,1.066 -0.533,1.467 -0.722,0.724 -1.894,0.728 -2.62,0.007 -0.035,-0.038 -0.071,-0.078 -0.105,-0.117 -0.091,0.232 -0.226,0.45 -0.412,0.637 -0.724,0.726 -1.896,0.729 -2.621,0.008 -0.325,-0.325 -0.503,-0.736 -0.537,-1.158 -0.634,0.193 -1.349,0.042 -1.851,-0.458 -0.604,-0.602 -0.706,-1.517 -0.302,-2.225 -0.164,-0.086 -0.319,-0.198 -0.459,-0.334 -0.723,-0.721 -0.726,-1.894 -0.005,-2.619 0.036,-0.037 0.073,-0.069 0.113,-0.102 -0.267,-0.666 -0.132,-1.455 0.407,-1.994 0.24,-0.242 0.532,-0.402 0.839,-0.483 -0.202,-0.636 -0.051,-1.362 0.455,-1.866 0.426,-0.43 1.011,-0.602 1.568,-0.524 0.019,-0.12 0.035,-0.243 0.053,-0.364 1.195,-8.213 -9.615,-16.725 -9.615,-16.725 l 3.774,-3.754 c 3.517,3.412 6.812,11.031 8.742,16.116 0.056,-0.073 0.11,-0.146 0.178,-0.213 0.723,-0.725 1.894,-0.726 2.619,-0.005 0.067,0.065 0.125,0.134 0.178,0.205 0.09,-0.202 0.213,-0.392 0.378,-0.558 0.723,-0.725 1.895,-0.729 2.62,-0.005 0.009,0.006 0.015,0.014 0.02,0.021 C -1.645,-0.71 -0.645,-0.642 0,0" /></g><path
           id="path74"
           style="fill:#64b044;fill-opacity:1;fill-rule:nonzero;stroke:none"
           d="m 39.125,0 -14.13,0 0,14.712 14.13,0 0,-14.712 z" /><path
           id="path76"
           style="fill:#64a74a;fill-opacity:1;fill-rule:nonzero;stroke:none"
           d="m 39.125,0 -4.627,0 0,14.712 4.627,0 0,-14.712 z" /><path
           id="path78"
           style="fill:#5f9653;fill-opacity:1;fill-rule:nonzero;stroke:none"
           d="m 39.125,0 -1.141,0 0,14.712 1.141,0 0,-14.712 z" /></g></g><text
       id="text80"
       style="font-variant:normal;font-weight:bold;font-stretch:normal;font-size:28.71960068px;font-family:'PF DinText Pro';-inkscape-font-specification:PFDinTextPro-Bold;writing-mode:lr-tb;fill:#cecece;fill-opacity:1;fill-rule:nonzero;stroke:none"
       transform="matrix(1,0,0,-1,16.4414,25.0225)"><tspan
         id="tspan82"
         y="0"
         x="0 15.422425">В2</tspan></text>
</g></svg>