<?xml version="1.0" encoding="UTF-8" standalone="no"?>
<!-- Created with Inkscape (http://www.inkscape.org/) -->

<svg
   xmlns:dc="http://purl.org/dc/elements/1.1/"
   xmlns:cc="http://creativecommons.org/ns#"
   xmlns:rdf="http://www.w3.org/1999/02/22-rdf-syntax-ns#"
   xmlns:svg="http://www.w3.org/2000/svg"
   xmlns="http://www.w3.org/2000/svg"
   xmlns:inkscape="http://www.inkscape.org/namespaces/inkscape"
   version="1.1"
   width="37.549999"
   height="75.978378"
   id="svg2"
   xml:space="preserve"><metadata
     id="metadata8"><rdf:RDF><cc:Work
         rdf:about=""><dc:format>image/svg+xml</dc:format><dc:type
           rdf:resource="http://purl.org/dc/dcmitype/StillImage" /></cc:Work></rdf:RDF></metadata><defs
     id="defs6"><clipPath
       id="clipPath16"><path
         d="m 0,60.783 30.04,0 L 30.04,0 0,0 0,60.783 z"
         inkscape:connector-curvature="0"
         id="path18" /></clipPath></defs><g
     transform="matrix(1.25,0,0,-1.25,0,75.978375)"
     id="g10"><g
       id="g12"><g
         clip-path="url(#clipPath16)"
         id="g14"><g
           transform="translate(23.3057,33.2495)"
           id="g20"><path
             d="m 0,0 c 0,-15.206 -4.138,-27.532 -9.241,-27.532 -5.106,0 -9.242,12.326 -9.242,27.532 0,15.204 4.136,27.533 9.242,27.533 C -4.138,27.533 0,15.204 0,0"
             inkscape:connector-curvature="0"
             id="path22"
             style="fill:#ffe167;fill-opacity:1;fill-rule:nonzero;stroke:none" /></g><g
           transform="translate(11.6885,22.3433)"
           id="g24"><path
             d="m 0,0 c 3.415,-9.146 4.174,-17.312 1.698,-18.236 -2.479,-0.925 -7.254,5.74 -10.669,14.887 -3.415,9.15 -1.697,18.239 -1.697,18.239 0,0 7.253,-5.74 10.668,-14.89"
             inkscape:connector-curvature="0"
             id="path26"
             style="fill:#64b044;fill-opacity:1;fill-rule:nonzero;stroke:none" /></g><g
           transform="translate(16.5527,22.2959)"
           id="g28"><path
             d="m 0,0 c -3.284,-8.794 -4.015,-16.648 -1.632,-17.539 2.383,-0.888 6.976,5.523 10.259,14.318 3.284,8.799 1.632,17.54 1.632,17.54 C 10.259,14.319 3.283,8.799 0,0"
             inkscape:connector-curvature="0"
             id="path30"
             style="fill:#64a74a;fill-opacity:1;fill-rule:nonzero;stroke:none" /></g><path
           d="m 15.217,0 -3.395,0 0,6.41 3.395,0 0,-6.41 z"
           inkscape:connector-curvature="0"
           id="path32"
           style="fill:#64b044;fill-opacity:1;fill-rule:nonzero;stroke:none" /><g
           transform="translate(8.9238,50.7813)"
           id="g34"><path
             d="m 0,0 c 0,-0.76 -0.617,-1.375 -1.377,-1.375 -0.759,0 -1.374,0.615 -1.374,1.375 0,0.761 0.615,1.375 1.374,1.375 C -0.617,1.375 0,0.761 0,0"
             inkscape:connector-curvature="0"
             id="path36"
             style="fill:#fcf6a8;fill-opacity:1;fill-rule:nonzero;stroke:none" /></g><g
           transform="translate(12.3174,53.5542)"
           id="g38"><path
             d="m 0,0 c 0,-0.759 -0.616,-1.375 -1.375,-1.375 -0.76,0 -1.376,0.616 -1.376,1.375 0,0.76 0.616,1.376 1.376,1.376 C -0.616,1.376 0,0.76 0,0"
             inkscape:connector-curvature="0"
             id="path40"
             style="fill:#fcf6a8;fill-opacity:1;fill-rule:nonzero;stroke:none" /></g><g
           transform="translate(14.0645,56.5073)"
           id="g42"><path
             d="m 0,0 c 0,-0.759 -0.618,-1.375 -1.375,-1.375 -0.761,0 -1.377,0.616 -1.377,1.375 0,0.761 0.616,1.376 1.377,1.376 C -0.618,1.376 0,0.761 0,0"
             inkscape:connector-curvature="0"
             id="path44"
             style="fill:#f6eb3b;fill-opacity:1;fill-rule:nonzero;stroke:none" /></g><g
           transform="translate(21.749,52.1558)"
           id="g46"><path
             d="m 0,0 c 0,-0.759 -0.615,-1.375 -1.375,-1.375 -0.76,0 -1.376,0.616 -1.376,1.375 0,0.761 0.616,1.376 1.376,1.376 C -0.615,1.376 0,0.761 0,0"
             inkscape:connector-curvature="0"
             id="path48"
             style="fill:#f6eb3b;fill-opacity:1;fill-rule:nonzero;stroke:none" /></g><g
           transform="translate(14.4082,48.0313)"
           id="g50"><path
             d="m 0,0 c 0,-0.76 -0.615,-1.375 -1.374,-1.375 -0.761,0 -1.376,0.615 -1.376,1.375 0,0.76 0.615,1.375 1.376,1.375 C -0.615,1.375 0,0.76 0,0"
             inkscape:connector-curvature="0"
             id="path52"
             style="fill:#f6eb3b;fill-opacity:1;fill-rule:nonzero;stroke:none" /></g><g
           transform="translate(11.1631,46.8584)"
           id="g54"><path
             d="m 0,0 c 0,-0.76 -0.615,-1.375 -1.375,-1.375 -0.76,0 -1.376,0.615 -1.376,1.375 0,0.76 0.616,1.375 1.376,1.375 C -0.615,1.375 0,0.76 0,0"
             inkscape:connector-curvature="0"
             id="path56"
             style="fill:#f6eb3b;fill-opacity:1;fill-rule:nonzero;stroke:none" /></g><g
           transform="translate(7.5469,41.6836)"
           id="g58"><path
             d="m 0,0 c 0,-0.761 -0.615,-1.375 -1.374,-1.375 -0.761,0 -1.377,0.614 -1.377,1.375 0,0.759 0.616,1.375 1.377,1.375 C -0.615,1.375 0,0.759 0,0"
             inkscape:connector-curvature="0"
             id="path60"
             style="fill:#f6eb3b;fill-opacity:1;fill-rule:nonzero;stroke:none" /></g><g
           transform="translate(12.3174,33.4082)"
           id="g62"><path
             d="m 0,0 c 0,-0.76 -0.616,-1.375 -1.375,-1.375 -0.76,0 -1.376,0.615 -1.376,1.375 0,0.761 0.616,1.375 1.376,1.375 C -0.616,1.375 0,0.761 0,0"
             inkscape:connector-curvature="0"
             id="path64"
             style="fill:#f6eb3b;fill-opacity:1;fill-rule:nonzero;stroke:none" /></g><g
           transform="translate(14.4082,41.6836)"
           id="g66"><path
             d="m 0,0 c 0,-0.761 -0.615,-1.375 -1.374,-1.375 -0.761,0 -1.376,0.614 -1.376,1.375 0,0.759 0.615,1.375 1.376,1.375 C -0.615,1.375 0,0.759 0,0"
             inkscape:connector-curvature="0"
             id="path68"
             style="fill:#fcf6a8;fill-opacity:1;fill-rule:nonzero;stroke:none" /></g><g
           transform="translate(14.0645,45.1001)"
           id="g70"><path
             d="m 0,0 c 0,-0.759 -0.618,-1.375 -1.375,-1.375 -0.761,0 -1.377,0.616 -1.377,1.375 0,0.76 0.616,1.376 1.377,1.376 C -0.618,1.376 0,0.76 0,0"
             inkscape:connector-curvature="0"
             id="path72"
             style="fill:#f6eb3b;fill-opacity:1;fill-rule:nonzero;stroke:none" /></g><g
           transform="translate(20.0605,47.5679)"
           id="g74"><path
             d="m 0,0 c 0,-0.76 -0.617,-1.375 -1.377,-1.375 -0.759,0 -1.374,0.615 -1.374,1.375 0,0.76 0.615,1.375 1.374,1.375 C -0.617,1.375 0,0.76 0,0"
             inkscape:connector-curvature="0"
             id="path76"
             style="fill:#f5df3c;fill-opacity:1;fill-rule:nonzero;stroke:none" /></g><g
           transform="translate(13.5195,26.6274)"
           id="g78"><path
             d="m 0,0 c 0,-0.761 -0.615,-1.376 -1.375,-1.376 -0.759,0 -1.375,0.615 -1.375,1.376 0,0.759 0.616,1.375 1.375,1.375 C -0.615,1.375 0,0.759 0,0"
             inkscape:connector-curvature="0"
             id="path80"
             style="fill:#fcf6a8;fill-opacity:1;fill-rule:nonzero;stroke:none" /></g><g
           transform="translate(15.4395,34.9858)"
           id="g82"><path
             d="m 0,0 c 0,-0.759 -0.616,-1.375 -1.375,-1.375 -0.761,0 -1.375,0.616 -1.375,1.375 0,0.761 0.614,1.375 1.375,1.375 C -0.616,1.375 0,0.761 0,0"
             inkscape:connector-curvature="0"
             id="path84"
             style="fill:#fcf6a8;fill-opacity:1;fill-rule:nonzero;stroke:none" /></g><g
           transform="translate(15.7842,39.1113)"
           id="g86"><path
             d="m 0,0 c 0,-0.758 -0.616,-1.375 -1.376,-1.375 -0.759,0 -1.374,0.617 -1.374,1.375 0,0.761 0.615,1.375 1.374,1.375 C -0.616,1.375 0,0.761 0,0"
             inkscape:connector-curvature="0"
             id="path88"
             style="fill:#f6eb3b;fill-opacity:1;fill-rule:nonzero;stroke:none" /></g><g
           transform="translate(11.6582,29.9272)"
           id="g90"><path
             d="m 0,0 c 0,-0.759 -0.616,-1.375 -1.377,-1.375 -0.759,0 -1.374,0.616 -1.374,1.375 0,0.761 0.615,1.375 1.374,1.375 C -0.616,1.375 0,0.761 0,0"
             inkscape:connector-curvature="0"
             id="path92"
             style="fill:#f6eb3b;fill-opacity:1;fill-rule:nonzero;stroke:none" /></g><g
           transform="translate(7.5469,39.1113)"
           id="g94"><path
             d="m 0,0 c 0,-0.758 -0.615,-1.375 -1.374,-1.375 -0.761,0 -1.377,0.617 -1.377,1.375 0,0.761 0.616,1.375 1.377,1.375 C -0.615,1.375 0,0.761 0,0"
             inkscape:connector-curvature="0"
             id="path96"
             style="fill:#fcf6a8;fill-opacity:1;fill-rule:nonzero;stroke:none" /></g><g
           transform="translate(7.5469,44.6367)"
           id="g98"><path
             d="m 0,0 c 0,-0.76 -0.615,-1.375 -1.374,-1.375 -0.761,0 -1.377,0.615 -1.377,1.375 0,0.759 0.616,1.375 1.377,1.375 C -0.615,1.375 0,0.759 0,0"
             inkscape:connector-curvature="0"
             id="path100"
             style="fill:#fcf6a8;fill-opacity:1;fill-rule:nonzero;stroke:none" /></g><g
           transform="translate(8.1904,47.8511)"
           id="g102"><path
             d="m 0,0 c 0,-0.76 -0.615,-1.375 -1.375,-1.375 -0.759,0 -1.375,0.615 -1.375,1.375 0,0.759 0.616,1.376 1.375,1.376 C -0.615,1.376 0,0.759 0,0"
             inkscape:connector-curvature="0"
             id="path104"
             style="fill:#fcf6a8;fill-opacity:1;fill-rule:nonzero;stroke:none" /></g><g
           transform="translate(9.5664,53.5542)"
           id="g106"><path
             d="m 0,0 c 0,-0.759 -0.616,-1.375 -1.376,-1.375 -0.76,0 -1.375,0.616 -1.375,1.375 0,0.76 0.615,1.376 1.375,1.376 C -0.616,1.376 0,0.76 0,0"
             inkscape:connector-curvature="0"
             id="path108"
             style="fill:#f6eb3b;fill-opacity:1;fill-rule:nonzero;stroke:none" /></g><g
           transform="translate(10.9414,40.3081)"
           id="g110"><path
             d="m 0,0 c 0,-0.761 -0.616,-1.375 -1.375,-1.375 -0.76,0 -1.376,0.614 -1.376,1.375 0,0.76 0.616,1.375 1.376,1.375 C -0.616,1.375 0,0.76 0,0"
             inkscape:connector-curvature="0"
             id="path112"
             style="fill:#fcf6a8;fill-opacity:1;fill-rule:nonzero;stroke:none" /></g><g
           transform="translate(6.8154,36.3613)"
           id="g114"><path
             d="m 0,0 c 0,-0.758 -0.616,-1.375 -1.375,-1.375 -0.761,0 -1.376,0.617 -1.376,1.375 0,0.76 0.615,1.375 1.376,1.375 C -0.616,1.375 0,0.76 0,0"
             inkscape:connector-curvature="0"
             id="path116"
             style="fill:#fcf6a8;fill-opacity:1;fill-rule:nonzero;stroke:none" /></g><g
           transform="translate(10.4658,43.9063)"
           id="g118"><path
             d="m 0,0 c 0,-0.761 -0.615,-1.375 -1.375,-1.375 -0.76,0 -1.375,0.614 -1.375,1.375 0,0.759 0.615,1.375 1.375,1.375 C -0.615,1.375 0,0.759 0,0"
             inkscape:connector-curvature="0"
             id="path120"
             style="fill:#fcf6a8;fill-opacity:1;fill-rule:nonzero;stroke:none" /></g><g
           transform="translate(9.0908,33.2285)"
           id="g122"><path
             d="m 0,0 c 0,-0.76 -0.616,-1.375 -1.375,-1.375 -0.762,0 -1.377,0.615 -1.377,1.375 0,0.76 0.615,1.375 1.377,1.375 C -0.616,1.375 0,0.76 0,0"
             inkscape:connector-curvature="0"
             id="path124"
             style="fill:#f6eb3b;fill-opacity:1;fill-rule:nonzero;stroke:none" /></g><g
           transform="translate(17.3096,56.5073)"
           id="g126"><path
             d="m 0,0 c 0,-0.759 -0.616,-1.375 -1.376,-1.375 -0.76,0 -1.376,0.616 -1.376,1.375 0,0.761 0.616,1.376 1.376,1.376 C -0.616,1.376 0,0.761 0,0"
             inkscape:connector-curvature="0"
             id="path128"
             style="fill:#f6eb3b;fill-opacity:1;fill-rule:nonzero;stroke:none" /></g><g
           transform="translate(11.1631,56.3062)"
           id="g130"><path
             d="m 0,0 c 0,-0.761 -0.615,-1.375 -1.375,-1.375 -0.76,0 -1.376,0.614 -1.376,1.375 0,0.758 0.616,1.375 1.376,1.375 C -0.615,1.375 0,0.758 0,0"
             inkscape:connector-curvature="0"
             id="path132"
             style="fill:#fcf6a8;fill-opacity:1;fill-rule:nonzero;stroke:none" /></g><g
           transform="translate(18.6836,53.5542)"
           id="g134"><path
             d="m 0,0 c 0,-0.759 -0.615,-1.375 -1.374,-1.375 -0.761,0 -1.376,0.616 -1.376,1.375 0,0.76 0.615,1.376 1.376,1.376 C -0.615,1.376 0,0.76 0,0"
             inkscape:connector-curvature="0"
             id="path136"
             style="fill:#f6eb3b;fill-opacity:1;fill-rule:nonzero;stroke:none" /></g><g
           transform="translate(15.7842,53.7349)"
           id="g138"><path
             d="m 0,0 c 0,-0.76 -0.616,-1.375 -1.376,-1.375 -0.759,0 -1.374,0.615 -1.374,1.375 0,0.76 0.615,1.375 1.374,1.375 C -0.616,1.375 0,0.76 0,0"
             inkscape:connector-curvature="0"
             id="path140"
             style="fill:#fcf6a8;fill-opacity:1;fill-rule:nonzero;stroke:none" /></g><g
           transform="translate(11.8223,50.3179)"
           id="g142"><path
             d="m 0,0 c 0,-0.759 -0.615,-1.375 -1.375,-1.375 -0.76,0 -1.376,0.616 -1.376,1.375 0,0.761 0.616,1.375 1.376,1.375 C -0.615,1.375 0,0.761 0,0"
             inkscape:connector-curvature="0"
             id="path144"
             style="fill:#fcf6a8;fill-opacity:1;fill-rule:nonzero;stroke:none" /></g><g
           transform="translate(17.0869,46.4766)"
           id="g146"><path
             d="m 0,0 c 0,-0.761 -0.615,-1.376 -1.376,-1.376 -0.759,0 -1.375,0.615 -1.375,1.376 0,0.758 0.616,1.375 1.375,1.375 C -0.615,1.375 0,0.758 0,0"
             inkscape:connector-curvature="0"
             id="path148"
             style="fill:#fcf6a8;fill-opacity:1;fill-rule:nonzero;stroke:none" /></g><g
           transform="translate(17.9678,49.6094)"
           id="g150"><path
             d="m 0,0 c 0,-0.761 -0.614,-1.375 -1.375,-1.375 -0.76,0 -1.376,0.614 -1.376,1.375 0,0.759 0.616,1.375 1.376,1.375 C -0.614,1.375 0,0.759 0,0"
             inkscape:connector-curvature="0"
             id="path152"
             style="fill:#fcf6a8;fill-opacity:1;fill-rule:nonzero;stroke:none" /></g><g
           transform="translate(14.8955,50.9839)"
           id="g154"><path
             d="m 0,0 c 0,-0.759 -0.615,-1.375 -1.376,-1.375 -0.759,0 -1.375,0.616 -1.375,1.375 0,0.76 0.616,1.375 1.375,1.375 C -0.615,1.375 0,0.76 0,0"
             inkscape:connector-curvature="0"
             id="path156"
             style="fill:#f5df3c;fill-opacity:1;fill-rule:nonzero;stroke:none" /></g><g
           transform="translate(21.4355,54.9307)"
           id="g158"><path
             d="m 0,0 c 0,-0.761 -0.616,-1.376 -1.375,-1.376 -0.761,0 -1.377,0.615 -1.377,1.376 0,0.758 0.616,1.375 1.377,1.375 C -0.616,1.375 0,0.758 0,0"
             inkscape:connector-curvature="0"
             id="path160"
             style="fill:#f5df3c;fill-opacity:1;fill-rule:nonzero;stroke:none" /></g><g
           transform="translate(23.125,45.2808)"
           id="g162"><path
             d="m 0,0 c 0,-0.761 -0.615,-1.375 -1.376,-1.375 -0.76,0 -1.375,0.614 -1.375,1.375 0,0.761 0.615,1.375 1.375,1.375 C -0.615,1.375 0,0.761 0,0"
             inkscape:connector-curvature="0"
             id="path164"
             style="fill:#f6eb3b;fill-opacity:1;fill-rule:nonzero;stroke:none" /></g><g
           transform="translate(24.5,37.2329)"
           id="g166"><path
             d="m 0,0 c 0,-0.759 -0.615,-1.376 -1.375,-1.376 -0.76,0 -1.376,0.617 -1.376,1.376 0,0.76 0.616,1.375 1.376,1.375 C -0.615,1.375 0,0.76 0,0"
             inkscape:connector-curvature="0"
             id="path168"
             style="fill:#f5df3c;fill-opacity:1;fill-rule:nonzero;stroke:none" /></g><g
           transform="translate(24.1865,41.6836)"
           id="g170"><path
             d="m 0,0 c 0,-0.761 -0.615,-1.375 -1.376,-1.375 -0.76,0 -1.375,0.614 -1.375,1.375 0,0.759 0.615,1.375 1.375,1.375 C -0.615,1.375 0,0.759 0,0"
             inkscape:connector-curvature="0"
             id="path172"
             style="fill:#f8ef6c;fill-opacity:1;fill-rule:nonzero;stroke:none" /></g><g
           transform="translate(18.1895,43.2622)"
           id="g174"><path
             d="m 0,0 c 0,-0.761 -0.615,-1.377 -1.374,-1.377 -0.761,0 -1.376,0.616 -1.376,1.377 0,0.759 0.615,1.375 1.376,1.375 C -0.615,1.375 0,0.759 0,0"
             inkscape:connector-curvature="0"
             id="path176"
             style="fill:#f8ef6c;fill-opacity:1;fill-rule:nonzero;stroke:none" /></g><g
           transform="translate(20.7188,41.8848)"
           id="g178"><path
             d="m 0,0 c 0,-0.758 -0.615,-1.375 -1.375,-1.375 -0.759,0 -1.376,0.617 -1.376,1.375 0,0.761 0.617,1.377 1.376,1.377 C -0.615,1.377 0,0.761 0,0"
             inkscape:connector-curvature="0"
             id="path180"
             style="fill:#f8ef6c;fill-opacity:1;fill-rule:nonzero;stroke:none" /></g><g
           transform="translate(18.4629,37.2329)"
           id="g182"><path
             d="m 0,0 c 0,-0.759 -0.616,-1.376 -1.376,-1.376 -0.76,0 -1.376,0.617 -1.376,1.376 0,0.76 0.616,1.375 1.376,1.375 C -0.616,1.375 0,0.76 0,0"
             inkscape:connector-curvature="0"
             id="path184"
             style="fill:#f8ef6c;fill-opacity:1;fill-rule:nonzero;stroke:none" /></g><g
           transform="translate(20.9414,38.6074)"
           id="g186"><path
             d="m 0,0 c 0,-0.758 -0.616,-1.375 -1.376,-1.375 -0.76,0 -1.376,0.617 -1.376,1.375 0,0.761 0.616,1.375 1.376,1.375 C -0.616,1.375 0,0.761 0,0"
             inkscape:connector-curvature="0"
             id="path188"
             style="fill:#f5df3c;fill-opacity:1;fill-rule:nonzero;stroke:none" /></g><g
           transform="translate(20.7188,34.9858)"
           id="g190"><path
             d="m 0,0 c 0,-0.759 -0.615,-1.375 -1.375,-1.375 -0.759,0 -1.376,0.616 -1.376,1.375 0,0.761 0.617,1.375 1.376,1.375 C -0.615,1.375 0,0.761 0,0"
             inkscape:connector-curvature="0"
             id="path192"
             style="fill:#f5df3c;fill-opacity:1;fill-rule:nonzero;stroke:none" /></g><g
           transform="translate(15.9336,28.0029)"
           id="g194"><path
             d="m 0,0 c 0,-0.761 -0.616,-1.375 -1.376,-1.375 -0.76,0 -1.375,0.614 -1.375,1.375 0,0.758 0.615,1.375 1.375,1.375 C -0.616,1.375 0,0.758 0,0"
             inkscape:connector-curvature="0"
             id="path196"
             style="fill:#f5df3c;fill-opacity:1;fill-rule:nonzero;stroke:none" /></g><g
           transform="translate(18.6836,32.0327)"
           id="g198"><path
             d="m 0,0 c 0,-0.759 -0.615,-1.375 -1.374,-1.375 -0.761,0 -1.376,0.616 -1.376,1.375 0,0.76 0.615,1.375 1.376,1.375 C -0.615,1.375 0,0.76 0,0"
             inkscape:connector-curvature="0"
             id="path200"
             style="fill:#f5df3c;fill-opacity:1;fill-rule:nonzero;stroke:none" /></g><g
           transform="translate(23.125,33.6113)"
           id="g202"><path
             d="m 0,0 c 0,-0.76 -0.615,-1.375 -1.376,-1.375 -0.76,0 -1.375,0.615 -1.375,1.375 0,0.76 0.615,1.375 1.375,1.375 C -0.615,1.375 0,0.76 0,0"
             inkscape:connector-curvature="0"
             id="path204"
             style="fill:#f8ef6c;fill-opacity:1;fill-rule:nonzero;stroke:none" /></g><g
           transform="translate(19.5654,28.5522)"
           id="g206"><path
             d="m 0,0 c 0,-0.76 -0.616,-1.375 -1.376,-1.375 -0.759,0 -1.374,0.615 -1.374,1.375 0,0.759 0.615,1.375 1.374,1.375 C -0.616,1.375 0,0.759 0,0"
             inkscape:connector-curvature="0"
             id="path208"
             style="fill:#f8ef6c;fill-opacity:1;fill-rule:nonzero;stroke:none" /></g><g
           transform="translate(15.4248,31.6587)"
           id="g210"><path
             d="m 0,0 c -0.107,-0.752 -0.804,-1.274 -1.556,-1.167 -0.752,0.107 -1.274,0.802 -1.166,1.555 0.106,0.753 0.803,1.276 1.556,1.169 C -0.414,1.449 0.107,0.752 0,0"
             inkscape:connector-curvature="0"
             id="path212"
             style="fill:#f8ef6c;fill-opacity:1;fill-rule:nonzero;stroke:none" /></g><g
           transform="translate(16.8154,25.251)"
           id="g214"><path
             d="m 0,0 c 0,-0.759 -0.616,-1.375 -1.376,-1.375 -0.76,0 -1.375,0.616 -1.375,1.375 0,0.76 0.615,1.376 1.375,1.376 C -0.616,1.376 0,0.76 0,0"
             inkscape:connector-curvature="0"
             id="path216"
             style="fill:#f8ef6c;fill-opacity:1;fill-rule:nonzero;stroke:none" /></g><g
           transform="translate(15.4395,21.5732)"
           id="g218"><path
             d="m 0,0 c 0,-0.759 -0.616,-1.375 -1.375,-1.375 -0.761,0 -1.375,0.616 -1.375,1.375 0,0.761 0.614,1.376 1.375,1.376 C -0.616,1.376 0,0.761 0,0"
             inkscape:connector-curvature="0"
             id="path220"
             style="fill:#f5df3c;fill-opacity:1;fill-rule:nonzero;stroke:none" /></g><g
           transform="translate(9.7881,36.3613)"
           id="g222"><path
             d="m 0,0 c 0,-0.758 -0.615,-1.375 -1.376,-1.375 -0.759,0 -1.375,0.617 -1.375,1.375 0,0.76 0.616,1.375 1.375,1.375 C -0.615,1.375 0,0.76 0,0"
             inkscape:connector-curvature="0"
             id="path224"
             style="fill:#fcf6a8;fill-opacity:1;fill-rule:nonzero;stroke:none" /></g><g
           transform="translate(22.8105,48.9434)"
           id="g226"><path
             d="m 0,0 c 0,-0.759 -0.616,-1.375 -1.375,-1.375 -0.761,0 -1.375,0.616 -1.375,1.375 0,0.759 0.614,1.375 1.375,1.375 C -0.616,1.375 0,0.759 0,0"
             inkscape:connector-curvature="0"
             id="path228"
             style="fill:#f5df3c;fill-opacity:1;fill-rule:nonzero;stroke:none" /></g><g
           transform="translate(13.0342,37.7368)"
           id="g230"><path
             d="m 0,0 c 0,-0.76 -0.617,-1.375 -1.376,-1.375 -0.76,0 -1.377,0.615 -1.377,1.375 0,0.761 0.617,1.375 1.377,1.375 C -0.617,1.375 0,0.761 0,0"
             inkscape:connector-curvature="0"
             id="path232"
             style="fill:#fcf6a8;fill-opacity:1;fill-rule:nonzero;stroke:none" /></g><text
           transform="matrix(1,0,0,-1,0,35.856)"
           id="text234"><tspan
             x="0 15.422425"
             y="0"
             id="tspan236"
             style="font-size:28.71960068px;font-variant:normal;font-weight:bold;font-stretch:normal;writing-mode:lr-tb;fill:#939393;fill-opacity:1;fill-rule:nonzero;stroke:none;font-family:PF DinText Pro;-inkscape-font-specification:PFDinTextPro-Bold">В6</tspan></text>
</g></g></g></svg>