<?xml version="1.0" encoding="UTF-8" standalone="no"?>
<!-- Created with Inkscape (http://www.inkscape.org/) -->

<svg
   xmlns:dc="http://purl.org/dc/elements/1.1/"
   xmlns:cc="http://creativecommons.org/ns#"
   xmlns:rdf="http://www.w3.org/1999/02/22-rdf-syntax-ns#"
   xmlns:svg="http://www.w3.org/2000/svg"
   xmlns="http://www.w3.org/2000/svg"
   xmlns:inkscape="http://www.inkscape.org/namespaces/inkscape"
   version="1.1"
   width="42.719749"
   height="78.422249"
   id="svg2"
   xml:space="preserve"><metadata
     id="metadata8"><rdf:RDF><cc:Work
         rdf:about=""><dc:format>image/svg+xml</dc:format><dc:type
           rdf:resource="http://purl.org/dc/dcmitype/StillImage" /></cc:Work></rdf:RDF></metadata><defs
     id="defs6"><clipPath
       id="clipPath16"><path
         d="m 0,62.738 34.176,0 L 34.176,0 0,0 0,62.738 z"
         inkscape:connector-curvature="0"
         id="path18" /></clipPath></defs><g
     transform="matrix(1.25,0,0,-1.25,0,78.42225)"
     id="g10"><g
       id="g12"><g
         clip-path="url(#clipPath16)"
         id="g14"><g
           transform="translate(2.916,52.9058)"
           id="g20"><path
             d="m 0,0 c -1.745,-11.051 4.722,-15.563 2.734,-18.26 -11.511,-15.613 -4.295,-32.755 11.39,-32.755 l 0,60.847 c 0,0 -2.075,0.029 -4.643,-0.61 C 5.735,8.29 0.937,5.938 0,0"
             inkscape:connector-curvature="0"
             id="path22"
             style="fill:#efe2ac;fill-opacity:1;fill-rule:nonzero;stroke:none" /></g><g
           transform="translate(31.2432,52.9058)"
           id="g24"><path
             d="M 0,0 C 1.756,-11.051 -4.748,-15.563 -2.749,-18.26 8.827,-33.873 1.568,-51.015 -14.203,-51.015 l 0,60.847 c 0,0 12.613,0.176 14.203,-9.832"
             inkscape:connector-curvature="0"
             id="path26"
             style="fill:#ddd099;fill-opacity:1;fill-rule:nonzero;stroke:none" /></g><g
           transform="translate(7.8936,54.2515)"
           id="g28"><path
             d="m 0,0 c 0,-1.288 -0.264,-2.334 -0.588,-2.334 -0.325,0 -0.588,1.046 -0.588,2.334 0,1.29 0.263,2.335 0.588,2.335 C -0.264,2.335 0,1.29 0,0"
             inkscape:connector-curvature="0"
             id="path30"
             style="fill:#ddd099;fill-opacity:1;fill-rule:nonzero;stroke:none" /></g><g
           transform="translate(5.749,49.3281)"
           id="g32"><path
             d="m 0,0 c 0,-1.288 -0.263,-2.334 -0.587,-2.334 -0.325,0 -0.589,1.046 -0.589,2.334 0,1.29 0.264,2.335 0.589,2.335 C -0.263,2.335 0,1.29 0,0"
             inkscape:connector-curvature="0"
             id="path34"
             style="fill:#ddd099;fill-opacity:1;fill-rule:nonzero;stroke:none" /></g><g
           transform="translate(10.5361,46.9941)"
           id="g36"><path
             d="m 0,0 c 0,-1.288 -0.263,-2.334 -0.587,-2.334 -0.326,0 -0.589,1.046 -0.589,2.334 0,1.29 0.263,2.335 0.589,2.335 C -0.263,2.335 0,1.29 0,0"
             inkscape:connector-curvature="0"
             id="path38"
             style="fill:#ddd099;fill-opacity:1;fill-rule:nonzero;stroke:none" /></g><g
           transform="translate(7.8936,41.9023)"
           id="g40"><path
             d="m 0,0 c 0,-1.288 -0.264,-2.333 -0.588,-2.333 -0.325,0 -0.588,1.045 -0.588,2.333 0,1.29 0.263,2.335 0.588,2.335 C -0.264,2.335 0,1.29 0,0"
             inkscape:connector-curvature="0"
             id="path42"
             style="fill:#ddd099;fill-opacity:1;fill-rule:nonzero;stroke:none" /></g><g
           transform="translate(11.7119,58.1709)"
           id="g44"><path
             d="m 0,0 c 0,-1.29 -0.263,-2.335 -0.587,-2.335 -0.325,0 -0.589,1.045 -0.589,2.335 0,1.288 0.264,2.336 0.589,2.336 C -0.263,2.336 0,1.288 0,0"
             inkscape:connector-curvature="0"
             id="path46"
             style="fill:#ddd099;fill-opacity:1;fill-rule:nonzero;stroke:none" /></g><g
           transform="translate(8.2041,30.4316)"
           id="g48"><path
             d="m 0,0 c 0,-1.286 -0.263,-2.334 -0.587,-2.334 -0.325,0 -0.589,1.048 -0.589,2.334 0,1.291 0.264,2.338 0.589,2.338 C -0.263,2.338 0,1.291 0,0"
             inkscape:connector-curvature="0"
             id="path50"
             style="fill:#ddd099;fill-opacity:1;fill-rule:nonzero;stroke:none" /></g><g
           transform="translate(5.1621,25.7617)"
           id="g52"><path
             d="m 0,0 c 0,-1.287 -0.264,-2.334 -0.589,-2.334 -0.323,0 -0.588,1.047 -0.588,2.334 0,1.29 0.265,2.336 0.588,2.336 C -0.264,2.336 0,1.29 0,0"
             inkscape:connector-curvature="0"
             id="path54"
             style="fill:#ddd099;fill-opacity:1;fill-rule:nonzero;stroke:none" /></g><g
           transform="translate(10.5361,21.0918)"
           id="g56"><path
             d="m 0,0 c 0,-1.287 -0.263,-2.334 -0.587,-2.334 -0.326,0 -0.589,1.047 -0.589,2.334 0,1.291 0.263,2.336 0.589,2.336 C -0.263,2.336 0,1.291 0,0"
             inkscape:connector-curvature="0"
             id="path58"
             style="fill:#ddd099;fill-opacity:1;fill-rule:nonzero;stroke:none" /></g><g
           transform="translate(7.8936,17.2969)"
           id="g60"><path
             d="m 0,0 c 0,-1.287 -0.264,-2.334 -0.588,-2.334 -0.325,0 -0.588,1.047 -0.588,2.334 0,1.291 0.263,2.336 0.588,2.336 C -0.264,2.336 0,1.291 0,0"
             inkscape:connector-curvature="0"
             id="path62"
             style="fill:#ddd099;fill-opacity:1;fill-rule:nonzero;stroke:none" /></g><g
           transform="translate(3.9854,14.9629)"
           id="g64"><path
             d="m 0,0 c 0,-1.287 -0.264,-2.334 -0.587,-2.334 -0.324,0 -0.589,1.047 -0.589,2.334 0,1.289 0.265,2.334 0.589,2.334 C -0.264,2.334 0,1.289 0,0"
             inkscape:connector-curvature="0"
             id="path66"
             style="fill:#ddd099;fill-opacity:1;fill-rule:nonzero;stroke:none" /></g><g
           transform="translate(8.793,8.9883)"
           id="g68"><path
             d="m 0,0 c 0,-1.287 -0.263,-2.334 -0.587,-2.334 -0.326,0 -0.589,1.047 -0.589,2.334 0,1.291 0.263,2.338 0.589,2.338 C -0.263,2.338 0,1.291 0,0"
             inkscape:connector-curvature="0"
             id="path70"
             style="fill:#ddd099;fill-opacity:1;fill-rule:nonzero;stroke:none" /></g><g
           transform="translate(11.7119,33.8867)"
           id="g72"><path
             d="m 0,0 c 0,-1.287 -0.263,-2.334 -0.587,-2.334 -0.325,0 -0.589,1.047 -0.589,2.334 0,1.288 0.264,2.334 0.589,2.334 C -0.263,2.334 0,1.288 0,0"
             inkscape:connector-curvature="0"
             id="path74"
             style="fill:#ddd099;fill-opacity:1;fill-rule:nonzero;stroke:none" /></g><text
           transform="matrix(1,0,0,-1,2.7207,8.9902)"
           id="text76"><tspan
             x="0 15.422425"
             y="0"
             id="tspan78"
             style="font-size:28.71960068px;font-variant:normal;font-weight:bold;font-stretch:normal;writing-mode:lr-tb;fill:#939393;fill-opacity:1;fill-rule:nonzero;stroke:none;font-family:PF DinText Pro;-inkscape-font-specification:PFDinTextPro-Bold">В7</tspan></text>
</g></g></g></svg>