<?xml version="1.0" encoding="UTF-8" standalone="no"?>
<svg
   xmlns:dc="http://purl.org/dc/elements/1.1/"
   xmlns:cc="http://creativecommons.org/ns#"
   xmlns:rdf="http://www.w3.org/1999/02/22-rdf-syntax-ns#"
   xmlns:svg="http://www.w3.org/2000/svg"
   xmlns="http://www.w3.org/2000/svg"
   viewBox="0 0 52.781376 77.831375"
   height="77.831375"
   width="52.781376"
   xml:space="preserve"
   version="1.1"
   id="svg2"><metadata
     id="metadata8"><rdf:RDF><cc:Work
         rdf:about=""><dc:format>image/svg+xml</dc:format><dc:type
           rdf:resource="http://purl.org/dc/dcmitype/StillImage" /></cc:Work></rdf:RDF></metadata><defs
     id="defs6"><clipPath
       id="clipPath20"
       clipPathUnits="userSpaceOnUse"><path
         id="path22"
         d="m 0,62.265 42.225,0 L 42.225,0 0,0 0,62.265 Z" /></clipPath></defs><g
     transform="matrix(1.25,0,0,-1.25,0,77.831375)"
     id="g10"><path
       id="path12"
       style="fill:#64b044;fill-opacity:1;fill-rule:nonzero;stroke:none"
       d="m 19.022,50.678 4.174,0 0,11.587 -4.174,0 0,-11.587 z" /><path
       id="path14"
       style="fill:#5f9653;fill-opacity:1;fill-rule:nonzero;stroke:none"
       d="m 21.109,50.678 2.087,0 0,11.587 -2.087,0 0,-11.587 z" /><g
       id="g16"><g
         clip-path="url(#clipPath20)"
         id="g18"><g
           transform="translate(40.8916,28.6074)"
           id="g24"><path
             id="path26"
             style="fill:#d9bf64;fill-opacity:1;fill-rule:nonzero;stroke:none"
             d="m 0,0 c -1.528,3.947 -4.367,7.722 -7.959,9.994 -3.548,2.247 -7.191,3.575 -8.791,7.85 -0.079,0.206 -0.786,3.098 -0.945,4.272 l -2.085,0 0,-50.723 c 11.66,0 21.113,9.453 21.113,21.113 C 1.333,-5.004 0.894,-2.325 0,0" /></g><g
           transform="translate(19.0298,50.7231)"
           id="g28"><path
             id="path30"
             style="fill:#e8cb70;fill-opacity:1;fill-rule:nonzero;stroke:none"
             d="m 0,0 c -0.16,-1.173 -0.867,-4.066 -0.946,-4.271 -1.599,-4.275 -5.245,-5.604 -8.789,-7.851 -3.591,-2.272 -6.432,-6.046 -7.958,-9.994 -0.899,-2.325 -1.337,-5.004 -1.337,-7.494 0,-11.66 9.453,-21.113 21.112,-21.113 L 2.082,0 0,0 Z" /></g><g
           transform="translate(27.3779,2.1328)"
           id="g32"><path
             id="path34"
             style="fill:#e8dcb5;fill-opacity:1;fill-rule:nonzero;stroke:none"
             d="m 0,0 c 0,-1.166 -2.807,-2.109 -6.266,-2.109 -3.458,0 -6.264,0.943 -6.264,2.109 0,1.164 2.806,2.109 6.264,2.109 C -2.807,2.109 0,1.164 0,0" /></g></g></g><text
       id="text36"
       style="font-variant:normal;font-weight:bold;font-stretch:normal;font-size:28.71960068px;font-family:'PF DinText Pro';-inkscape-font-specification:PFDinTextPro-Bold;writing-mode:lr-tb;fill:#939393;fill-opacity:1;fill-rule:nonzero;stroke:none"
       transform="matrix(1,0,0,-1,4.7954,10.1094)"><tspan
         id="tspan38"
         y="0"
         x="0 15.422425">В9</tspan></text>
</g></svg>