<?xml version="1.0" encoding="UTF-8" standalone="no"?>
<!-- Created with Inkscape (http://www.inkscape.org/) -->

<svg
   xmlns:dc="http://purl.org/dc/elements/1.1/"
   xmlns:cc="http://creativecommons.org/ns#"
   xmlns:rdf="http://www.w3.org/1999/02/22-rdf-syntax-ns#"
   xmlns:svg="http://www.w3.org/2000/svg"
   xmlns="http://www.w3.org/2000/svg"
   xmlns:inkscape="http://www.inkscape.org/namespaces/inkscape"
   version="1.1"
   width="73.175003"
   height="80.111122"
   id="svg2"
   xml:space="preserve"><metadata
     id="metadata8"><rdf:RDF><cc:Work
         rdf:about=""><dc:format>image/svg+xml</dc:format><dc:type
           rdf:resource="http://purl.org/dc/dcmitype/StillImage" /></cc:Work></rdf:RDF></metadata><defs
     id="defs6"><clipPath
       id="clipPath16"><path
         d="m 0,64.089 58.54,0 L 58.54,0 0,0 0,64.089 z"
         inkscape:connector-curvature="0"
         id="path18" /></clipPath></defs><g
     transform="matrix(1.25,0,0,-1.25,0,80.111125)"
     id="g10"><g
       id="g12"><g
         clip-path="url(#clipPath16)"
         id="g14"><g
           transform="translate(46.4541,30.4561)"
           id="g20"><path
             d="m 0,0 c 0,-16.821 -7.354,-30.456 -16.426,-30.456 -9.071,0 -16.427,13.635 -16.427,30.456 0,16.822 7.356,30.457 16.427,30.457 C -7.354,30.457 0,16.822 0,0"
             inkscape:connector-curvature="0"
             id="path22"
             style="fill:#ea4d20;fill-opacity:1;fill-rule:nonzero;stroke:none" /></g><g
           transform="translate(58.54,30.7622)"
           id="g24"><path
             d="m 0,0 c 0,-15.299 -7.354,-27.703 -16.428,-27.703 -9.07,0 -16.426,12.404 -16.426,27.703 0,15.3 7.356,27.702 16.426,27.702 C -7.354,27.702 0,15.3 0,0"
             inkscape:connector-curvature="0"
             id="path26"
             style="fill:#e2421e;fill-opacity:1;fill-rule:nonzero;stroke:none" /></g><g
           transform="translate(32.8525,30.7622)"
           id="g28"><path
             d="m 0,0 c 0,-15.299 -7.354,-27.703 -16.427,-27.703 -9.072,0 -16.426,12.404 -16.426,27.703 0,15.3 7.354,27.702 16.426,27.702 C -7.354,27.702 0,15.3 0,0"
             inkscape:connector-curvature="0"
             id="path30"
             style="fill:#f26544;fill-opacity:1;fill-rule:nonzero;stroke:none" /></g><g
           transform="translate(29.9639,64.0889)"
           id="g32"><path
             d="m 0,0 -0.09,0 -1.836,0 0,-13.181 1.836,0 0.09,0 1.836,0 L 1.836,0 0,0 z"
             inkscape:connector-curvature="0"
             id="path34"
             style="fill:#5f9653;fill-opacity:1;fill-rule:nonzero;stroke:none" /></g><g
           transform="translate(26.0967,51.5908)"
           id="g36"><path
             d="M 0,0 C 1.955,-0.967 3.685,-1.141 3.859,-0.392 4.039,0.356 2.597,1.746 0.64,2.71 -1.314,3.677 -3.223,3.104 -3.223,3.104 -3.223,3.104 -1.959,0.965 0,0"
             inkscape:connector-curvature="0"
             id="path38"
             style="fill:#5f9653;fill-opacity:1;fill-rule:nonzero;stroke:none" /></g><g
           transform="translate(33.8535,51.5908)"
           id="g40"><path
             d="M 0,0 C -1.96,-0.967 -3.688,-1.141 -3.865,-0.392 -4.043,0.356 -2.6,1.746 -0.646,2.71 1.313,3.677 3.219,3.104 3.219,3.104 3.219,3.104 1.953,0.965 0,0"
             inkscape:connector-curvature="0"
             id="path42"
             style="fill:#5f9653;fill-opacity:1;fill-rule:nonzero;stroke:none" /></g><g
           transform="translate(29.168,56.8887)"
           id="g44"><path
             d="m 0,0 c -0.02,-0.082 -0.031,-0.168 -0.031,-0.257 l 0,-4.679 c 0,-0.543 0.376,-0.985 0.841,-0.985 0.463,0 0.841,0.442 0.841,0.985 l 0,4.679 C 1.651,-0.168 1.639,-0.082 1.619,0 L 0,0 z"
             inkscape:connector-curvature="0"
             id="path46"
             style="fill:#5f9653;fill-opacity:1;fill-rule:nonzero;stroke:none" /></g><g
           transform="translate(46.4541,25.6157)"
           id="g48"><path
             d="m 0,0 c 0,-14.146 -7.354,-25.616 -16.426,-25.616 -9.071,0 -16.427,11.47 -16.427,25.616 0,14.149 7.356,25.619 16.427,25.619 C -7.354,25.619 0,14.149 0,0"
             inkscape:connector-curvature="0"
             id="path50"
             style="fill:#f15723;fill-opacity:1;fill-rule:nonzero;stroke:none" /></g></g></g><text
       transform="matrix(1,0,0,-1,18.5088,17.3037)"
       id="text52"><tspan
         x="0"
         y="0"
         id="tspan54"
         style="font-size:28.71960068px;font-variant:normal;font-weight:bold;font-stretch:normal;writing-mode:lr-tb;fill:#cecece;fill-opacity:1;fill-rule:nonzero;stroke:none;font-family:PF DinText Pro;-inkscape-font-specification:PFDinTextPro-Bold">ะก</tspan></text>
</g></svg>