<?xml version="1.0" encoding="UTF-8" standalone="no"?>
<svg
   xmlns:dc="http://purl.org/dc/elements/1.1/"
   xmlns:cc="http://creativecommons.org/ns#"
   xmlns:rdf="http://www.w3.org/1999/02/22-rdf-syntax-ns#"
   xmlns:svg="http://www.w3.org/2000/svg"
   xmlns="http://www.w3.org/2000/svg"
   viewBox="0 0 56.426998 82.001999"
   height="82.001999"
   width="56.426998"
   xml:space="preserve"
   version="1.1"
   id="svg2"><metadata
     id="metadata8"><rdf:RDF><cc:Work
         rdf:about=""><dc:format>image/svg+xml</dc:format><dc:type
           rdf:resource="http://purl.org/dc/dcmitype/StillImage" /></cc:Work></rdf:RDF></metadata><defs
     id="defs6"><clipPath
       id="clipPath16"
       clipPathUnits="userSpaceOnUse"><path
         id="path18"
         d="m 0,65.602 45.142,0 L 45.142,0 0,0 0,65.602 Z" /></clipPath></defs><g
     transform="matrix(1.25,0,0,-1.25,0,82.002)"
     id="g10"><g
       id="g12"><g
         clip-path="url(#clipPath16)"
         id="g14"><g
           transform="translate(33.6074,46.9204)"
           id="g20"><path
             id="path22"
             style="fill:#5f9653;fill-opacity:1;fill-rule:nonzero;stroke:none"
             d="M 0,0 C 7.381,-4.278 12.479,-3.953 11.387,0.727 10.294,5.405 3.425,12.672 -3.958,16.95 -11.342,21.231 -15.344,16.223 -15.344,16.223 -15.344,16.223 -7.386,4.281 0,0" /></g><g
           transform="translate(23.9053,42.5591)"
           id="g24"><path
             id="path26"
             style="fill:#64b044;fill-opacity:1;fill-rule:nonzero;stroke:none"
             d="M 0,0 C 5.453,-7.974 11.588,-11.684 13.695,-8.283 15.804,-4.882 13.093,4.341 7.637,12.319 2.18,20.295 -6.062,20.602 -6.062,20.602 -6.062,20.602 -5.459,7.979 0,0" /></g><path
           id="path28"
           style="fill:#64b044;fill-opacity:1;fill-rule:nonzero;stroke:none"
           d="m 18.301,63.161 -1.917,0 0,-34.222 1.917,0 0,34.222 z" /><g
           transform="translate(0,19.7354)"
           id="g30"><path
             id="path32"
             style="fill:#bc5779;fill-opacity:1;fill-rule:nonzero;stroke:none"
             d="m 0,0 c 0,-3.383 1.193,-6.897 3.495,-9.544 2.211,-2.547 7.613,-6.615 13.572,-6.608 3.388,0.004 -0.16,31.818 -0.16,31.818 C 7.568,15.666 0,8.652 0,0" /></g><g
           transform="translate(33.9873,19.7354)"
           id="g34"><path
             id="path36"
             style="fill:#a61d4b;fill-opacity:1;fill-rule:nonzero;stroke:none"
             d="m 0,0 c 0,-3.383 -1.194,-6.897 -3.501,-9.544 -2.211,-2.547 -5.074,-4.574 -8.267,-5.647 -2.909,-0.977 -5.141,-0.961 -5.141,-0.961 l 0,31.818 C -7.572,15.666 0,8.652 0,0" /></g><text
           id="text38"
           style="font-variant:normal;font-weight:bold;font-stretch:normal;font-size:28.71960068px;font-family:'PF DinText Pro';-inkscape-font-specification:PFDinTextPro-Bold;writing-mode:lr-tb;fill:#cecece;fill-opacity:1;fill-rule:nonzero;stroke:none"
           transform="matrix(1,0,0,-1,7.7891,8.9893)"><tspan
             id="tspan40"
             y="0"
             x="0">Е</tspan></text>
</g></g></g></svg>