<?xml version="1.0" encoding="UTF-8" standalone="no"?>
<svg
   xmlns:dc="http://purl.org/dc/elements/1.1/"
   xmlns:cc="http://creativecommons.org/ns#"
   xmlns:rdf="http://www.w3.org/1999/02/22-rdf-syntax-ns#"
   xmlns:svg="http://www.w3.org/2000/svg"
   xmlns="http://www.w3.org/2000/svg"
   viewBox="0 0 46.852798 60.5"
   height="60.5"
   width="46.852798"
   xml:space="preserve"
   version="1.1"
   id="svg2"><metadata
     id="metadata8"><rdf:RDF><cc:Work
         rdf:about=""><dc:format>image/svg+xml</dc:format><dc:type
           rdf:resource="http://purl.org/dc/dcmitype/StillImage" /></cc:Work></rdf:RDF></metadata><defs
     id="defs6"><clipPath
       id="clipPath16"
       clipPathUnits="userSpaceOnUse"><path
         id="path18"
         d="m 0,45.375 35.14,0 L 35.14,0 0,0 0,45.375 Z" /></clipPath></defs><g
     transform="matrix(1.3333333,0,0,-1.3333333,0,60.5)"
     id="g10"><g
       id="g12"><g
         clip-path="url(#clipPath16)"
         id="g14"><path
           id="path20"
           style="fill:#656869;fill-opacity:1;fill-rule:nonzero;stroke:none"
           d="m 32.504,4.067 -29.867,0 0,33.842 29.867,0 0,-33.842 z m -2.015,35.279 -25.839,0 C 2.082,39.346 0,37.264 0,34.695 L 0,4.65 C 0,2.082 2.082,0 4.65,0 l 25.839,0 c 2.569,0 4.651,2.082 4.651,4.65 l 0,30.045 c 0,2.569 -2.082,4.651 -4.651,4.651" /><g
           transform="translate(17.5693,41.957)"
           id="g22"><path
             id="path24"
             style="fill:#656869;fill-opacity:1;fill-rule:nonzero;stroke:none"
             d="M 0,0 C -0.578,0 -1.049,0.471 -1.049,1.05 -1.049,1.628 -0.578,2.1 0,2.1 0.579,2.1 1.05,1.628 1.05,1.05 1.05,0.471 0.579,0 0,0 m 4.778,-1.327 -0.988,0 0,2.377 -0.712,0 C 2.688,1.05 2.401,1.999 1.674,2.725 1.245,3.152 0.654,3.418 0,3.418 -0.653,3.418 -1.245,3.152 -1.674,2.725 -2.4,1.999 -2.687,1.05 -3.078,1.05 l -0.711,0 0,-2.377 -0.988,0 c -2.359,0 -4.27,-1.911 -4.27,-4.269 l 18.095,0 c 0,2.358 -1.911,4.269 -4.27,4.269" /></g><g
           transform="translate(27.3506,30.8521)"
           id="g26"><path
             id="path28"
             style="fill:#656869;fill-opacity:1;fill-rule:nonzero;stroke:none"
             d="m 0,0 -19.562,0 c -0.126,0 -0.231,0.104 -0.231,0.232 0,0.129 0.105,0.233 0.231,0.233 L 0,0.465 C 0.127,0.465 0.231,0.361 0.231,0.232 0.231,0.104 0.127,0 0,0" /></g><g
           transform="translate(27.3506,26.8135)"
           id="g30"><path
             id="path32"
             style="fill:#656869;fill-opacity:1;fill-rule:nonzero;stroke:none"
             d="m 0,0 -19.562,0 c -0.126,0 -0.231,0.104 -0.231,0.232 0,0.129 0.105,0.233 0.231,0.233 L 0,0.465 C 0.127,0.465 0.231,0.361 0.231,0.232 0.231,0.104 0.127,0 0,0" /></g><g
           transform="translate(27.3506,22.7754)"
           id="g34"><path
             id="path36"
             style="fill:#656869;fill-opacity:1;fill-rule:nonzero;stroke:none"
             d="m 0,0 -19.562,0 c -0.126,0 -0.231,0.104 -0.231,0.233 0,0.128 0.105,0.232 0.231,0.232 L 0,0.465 C 0.127,0.465 0.231,0.361 0.231,0.233 0.231,0.104 0.127,0 0,0" /></g><g
           transform="translate(27.3506,18.7363)"
           id="g38"><path
             id="path40"
             style="fill:#656869;fill-opacity:1;fill-rule:nonzero;stroke:none"
             d="m 0,0 -19.562,0 c -0.126,0 -0.231,0.104 -0.231,0.233 0,0.129 0.105,0.233 0.231,0.233 L 0,0.466 C 0.127,0.466 0.231,0.362 0.231,0.233 0.231,0.104 0.127,0 0,0" /></g><g
           transform="translate(27.3506,14.6992)"
           id="g42"><path
             id="path44"
             style="fill:#656869;fill-opacity:1;fill-rule:nonzero;stroke:none"
             d="m 0,0 -19.562,0 c -0.126,0 -0.231,0.104 -0.231,0.231 0,0.129 0.105,0.233 0.231,0.233 L 0,0.464 C 0.127,0.464 0.231,0.36 0.231,0.231 0.231,0.104 0.127,0 0,0" /></g><g
           transform="translate(27.3506,10.6592)"
           id="g46"><path
             id="path48"
             style="fill:#656869;fill-opacity:1;fill-rule:nonzero;stroke:none"
             d="m 0,0 -19.562,0 c -0.126,0 -0.231,0.105 -0.231,0.232 0,0.129 0.105,0.235 0.231,0.235 L 0,0.467 C 0.127,0.467 0.231,0.361 0.231,0.232 0.231,0.105 0.127,0 0,0" /></g></g></g></g></svg>