<?xml version="1.0" encoding="UTF-8" standalone="no"?>
<svg
   xmlns:dc="http://purl.org/dc/elements/1.1/"
   xmlns:cc="http://creativecommons.org/ns#"
   xmlns:rdf="http://www.w3.org/1999/02/22-rdf-syntax-ns#"
   xmlns:svg="http://www.w3.org/2000/svg"
   xmlns="http://www.w3.org/2000/svg"
   viewBox="0 0 47.500668 63.172531"
   height="63.172531"
   width="47.500668"
   xml:space="preserve"
   version="1.1"
   id="svg2"><metadata
     id="metadata8"><rdf:RDF><cc:Work
         rdf:about=""><dc:format>image/svg+xml</dc:format><dc:type
           rdf:resource="http://purl.org/dc/dcmitype/StillImage" /></cc:Work></rdf:RDF></metadata><defs
     id="defs6"><clipPath
       id="clipPath16"
       clipPathUnits="userSpaceOnUse"><path
         id="path18"
         d="m 0,47.379 35.625,0 L 35.625,0 0,0 0,47.379 Z" /></clipPath></defs><g
     transform="matrix(1.3333333,0,0,-1.3333333,0,63.172533)"
     id="g10"><g
       id="g12"><g
         clip-path="url(#clipPath16)"
         id="g14"><g
           transform="translate(34.9692,32.2349)"
           id="g20"><path
             id="path22"
             style="fill:#65686a;fill-opacity:1;fill-rule:nonzero;stroke:none"
             d="M 0,0 0.001,0 C 0,0.01 -0.002,0.021 -0.003,0.032 -0.036,0.285 -0.072,0.538 -0.115,0.787 -0.116,0.794 -0.117,0.8 -0.119,0.807 -0.524,3.158 -1.402,5.346 -2.655,7.271 -2.662,7.282 -2.67,7.294 -2.678,7.307 -2.805,7.5 -2.937,7.691 -3.071,7.881 -3.09,7.907 -3.109,7.934 -3.128,7.961 -3.258,8.139 -3.39,8.315 -3.525,8.489 -3.552,8.523 -3.579,8.558 -3.606,8.591 -3.739,8.759 -3.874,8.923 -4.013,9.085 -4.045,9.122 -4.077,9.16 -4.11,9.197 -4.247,9.354 -4.387,9.51 -4.529,9.663 -4.565,9.702 -4.603,9.74 -4.64,9.778 c -0.142,0.15 -0.287,0.298 -0.435,0.443 -0.037,0.036 -0.075,0.072 -0.113,0.109 -0.151,0.144 -0.303,0.287 -0.459,0.426 -0.034,0.03 -0.068,0.059 -0.103,0.088 -0.163,0.143 -0.327,0.286 -0.496,0.423 -0.013,0.012 -0.028,0.022 -0.042,0.033 -0.583,0.472 -1.197,0.908 -1.839,1.302 0,10e-4 -0.002,0.002 -0.003,0.002 -0.154,0.094 -0.311,0.183 -0.468,0.272 -0.077,0.044 -0.152,0.09 -0.231,0.133 -0.138,0.076 -0.279,0.148 -0.419,0.22 -0.1,0.052 -0.199,0.104 -0.3,0.154 -0.132,0.064 -0.266,0.126 -0.399,0.188 -0.114,0.051 -0.226,0.103 -0.34,0.153 -0.13,0.056 -0.26,0.109 -0.39,0.161 -0.123,0.05 -0.245,0.099 -0.368,0.146 -0.128,0.048 -0.256,0.094 -0.386,0.139 -0.129,0.045 -0.259,0.09 -0.39,0.132 -0.126,0.041 -0.254,0.081 -0.382,0.119 -0.136,0.041 -0.274,0.079 -0.413,0.117 -0.125,0.034 -0.25,0.067 -0.378,0.099 -0.143,0.035 -0.288,0.068 -0.433,0.1 -0.123,0.027 -0.247,0.055 -0.372,0.079 -0.152,0.03 -0.306,0.057 -0.46,0.082 -0.12,0.02 -0.24,0.041 -0.36,0.06 -0.164,0.024 -0.329,0.043 -0.494,0.062 -0.114,0.014 -0.226,0.03 -0.341,0.041 -0.185,0.018 -0.372,0.03 -0.559,0.042 -0.096,0.007 -0.191,0.015 -0.287,0.02 -0.284,0.014 -0.57,0.022 -0.858,0.022 -0.29,0 -0.58,-0.008 -0.867,-0.022 -0.099,-0.005 -0.197,-0.015 -0.295,-0.021 -0.188,-0.013 -0.376,-0.025 -0.562,-0.043 -0.116,-0.012 -0.231,-0.028 -0.347,-0.042 -0.166,-0.02 -0.333,-0.038 -0.497,-0.063 -0.124,-0.018 -0.246,-0.041 -0.368,-0.062 -0.155,-0.027 -0.31,-0.053 -0.463,-0.083 -0.128,-0.025 -0.254,-0.055 -0.38,-0.083 -0.146,-0.033 -0.291,-0.065 -0.435,-0.101 -0.13,-0.033 -0.259,-0.069 -0.389,-0.105 -0.137,-0.038 -0.274,-0.075 -0.41,-0.117 -0.133,-0.039 -0.264,-0.082 -0.395,-0.126 -0.129,-0.042 -0.259,-0.085 -0.387,-0.131 -0.133,-0.047 -0.266,-0.097 -0.399,-0.148 -0.122,-0.047 -0.244,-0.094 -0.364,-0.144 -0.136,-0.056 -0.269,-0.113 -0.403,-0.172 -0.114,-0.051 -0.228,-0.101 -0.341,-0.155 -0.137,-0.063 -0.271,-0.129 -0.407,-0.196 -0.106,-0.053 -0.211,-0.107 -0.315,-0.161 -0.139,-0.073 -0.276,-0.148 -0.413,-0.224 -0.095,-0.054 -0.191,-0.109 -0.286,-0.164 -0.141,-0.083 -0.282,-0.167 -0.42,-0.254 -0.085,-0.053 -0.17,-0.108 -0.255,-0.163 -0.144,-0.093 -0.288,-0.188 -0.429,-0.286 -0.074,-0.051 -0.146,-0.104 -0.219,-0.156 -0.148,-0.106 -0.296,-0.214 -0.442,-0.324 -0.059,-0.046 -0.117,-0.092 -0.176,-0.139 -0.154,-0.121 -0.308,-0.244 -0.459,-0.371 -0.042,-0.035 -0.082,-0.071 -0.123,-0.107 -0.165,-0.141 -0.328,-0.284 -0.488,-0.431 -0.017,-0.016 -0.034,-0.032 -0.051,-0.049 -3.388,-3.157 -5.509,-7.655 -5.509,-12.652 l 0,-10.652 12.778,-5.999 -0.49,0.981 1.747,0 0,3.365 c -4.347,1.115 -7.818,4.404 -9.192,8.639 -0.013,0 -0.026,-0.004 -0.04,-0.004 -1.328,0 -2.404,1.077 -2.404,2.405 0,1.126 0.777,2.064 1.823,2.325 0.355,6.913 6.072,12.408 13.072,12.408 7.002,0 12.72,-5.495 13.075,-12.408 1.045,-0.262 1.823,-1.199 1.823,-2.325 0,-1.328 -1.077,-2.405 -2.405,-2.405 -0.013,0 -0.026,0.004 -0.04,0.004 -1.373,-4.234 -4.845,-7.524 -9.191,-8.638 l 0,-3.366 1.747,0 -0.489,-0.98 12.777,5.998 0,10.652 C 0.139,-1.422 0.087,-0.706 0,0" /></g><g
           transform="translate(33.3179,12.1084)"
           id="g24"><path
             id="path26"
             style="fill:#65686a;fill-opacity:1;fill-rule:nonzero;stroke:none"
             d="m 0,0 c -1.426,1.425 -3.396,2.307 -5.57,2.307 l -1.496,0 -3.432,0 -5.007,-10.036 -5.007,10.036 -3.433,0 -1.495,0 c -2.175,0 -4.145,-0.882 -5.57,-2.307 -1.426,-1.427 -2.308,-3.396 -2.308,-5.571 l 0,-6.03 0,-0.507 35.626,0 0,0.507 0,6.03 C 2.308,-3.396 1.426,-1.427 0,0" /></g></g></g></g></svg>