<?xml version="1.0" encoding="UTF-8" standalone="no"?>
<svg
   xmlns:dc="http://purl.org/dc/elements/1.1/"
   xmlns:cc="http://creativecommons.org/ns#"
   xmlns:rdf="http://www.w3.org/1999/02/22-rdf-syntax-ns#"
   xmlns:svg="http://www.w3.org/2000/svg"
   xmlns="http://www.w3.org/2000/svg"
   viewBox="0 0 51.408798 66.235069"
   height="66.235069"
   width="51.408798"
   xml:space="preserve"
   version="1.1"
   id="svg2"><metadata
     id="metadata8"><rdf:RDF><cc:Work
         rdf:about=""><dc:format>image/svg+xml</dc:format><dc:type
           rdf:resource="http://purl.org/dc/dcmitype/StillImage" /></cc:Work></rdf:RDF></metadata><defs
     id="defs6"><clipPath
       id="clipPath16"
       clipPathUnits="userSpaceOnUse"><path
         id="path18"
         d="m 0,49.676 38.557,0 L 38.557,0 0,0 0,49.676 Z" /></clipPath></defs><g
     transform="matrix(1.3333333,0,0,-1.3333333,0,66.235067)"
     id="g10"><g
       id="g12"><g
         clip-path="url(#clipPath16)"
         id="g14"><g
           transform="translate(13.0996,8.6074)"
           id="g20"><path
             id="path22"
             style="fill:#65686a;fill-opacity:1;fill-rule:nonzero;stroke:none"
             d="M 0,0 -0.182,33.549 19.494,33.655 19.675,0.105 0,0 Z m 25.387,35.408 c -0.007,1.302 -1.071,2.355 -2.374,2.347 l -33.764,-0.182 c -1.306,-0.007 -2.355,-1.07 -2.349,-2.374 l 0.201,-36.988 c 0.006,-1.305 1.068,-2.357 2.374,-2.35 l 29.828,0.162 c 1.303,0.006 2.356,1.071 2.348,2.373 l -0.103,19.282 c -0.008,1.304 0.868,2.366 1.954,2.372 1.087,0.006 1.962,1.068 1.955,2.372 l -0.07,12.986 z" /></g><g
           transform="translate(27.9893,31.1582)"
           id="g24"><path
             id="path26"
             style="fill:#65686a;fill-opacity:1;fill-rule:nonzero;stroke:none"
             d="M 0,0 -3.39,2.849 C -4.484,3.768 -5.365,5.75 -5.373,7.291 l -0.048,8.832 c -0.009,1.541 -1.131,2.596 -2.479,2.363 l -18.281,-3.16 c -1.011,-0.177 -1.815,-1.374 -1.808,-2.678 l 0.2,-36.988 c 0.007,-1.305 0.823,-2.494 1.837,-2.658 l 25.506,-4.127 c 1.49,-0.242 2.716,0.869 2.707,2.488 L 2.132,-4.707 C 2.123,-3.089 1.162,-0.976 0,0" /></g></g></g></g></svg>