<?xml version="1.0" encoding="UTF-8" standalone="no"?>
<svg
   xmlns:dc="http://purl.org/dc/elements/1.1/"
   xmlns:cc="http://creativecommons.org/ns#"
   xmlns:rdf="http://www.w3.org/1999/02/22-rdf-syntax-ns#"
   xmlns:svg="http://www.w3.org/2000/svg"
   xmlns="http://www.w3.org/2000/svg"
   viewBox="0 0 43.863335 61.035198"
   height="61.035198"
   width="43.863335"
   xml:space="preserve"
   version="1.1"
   id="svg2"><metadata
     id="metadata8"><rdf:RDF><cc:Work
         rdf:about=""><dc:format>image/svg+xml</dc:format><dc:type
           rdf:resource="http://purl.org/dc/dcmitype/StillImage" /></cc:Work></rdf:RDF></metadata><defs
     id="defs6"><clipPath
       id="clipPath16"
       clipPathUnits="userSpaceOnUse"><path
         id="path18"
         d="m 0,45.776 32.897,0 L 32.897,0 0,0 0,45.776 Z" /></clipPath></defs><g
     transform="matrix(1.3333333,0,0,-1.3333333,0,61.0352)"
     id="g10"><g
       id="g12"><g
         clip-path="url(#clipPath16)"
         id="g14"><g
           transform="translate(14.8198,7.6318)"
           id="g20"><path
             id="path22"
             style="fill:#65686a;fill-opacity:1;fill-rule:nonzero;stroke:none"
             d="m 0,0 0,5.97 c 6.676,0 12.107,5.43 12.107,12.108 0,4.989 -3.13,9.537 -7.79,11.316 l 2.129,5.578 C 13.403,32.315 18.078,25.526 18.078,18.078 18.078,8.109 9.968,0 0,0" /></g><path
           id="path24"
           style="fill:#65686a;fill-opacity:1;fill-rule:nonzero;stroke:none"
           d="m 14.82,7.632 -14.818,0 0,5.97 14.818,0 0,-5.97 z" /><g
           transform="translate(14.8198,13.416)"
           id="g26"><path
             id="path28"
             style="fill:#65686a;fill-opacity:1;fill-rule:nonzero;stroke:none"
             d="m 0,0 c -4.584,0 -8.302,-3.716 -8.302,-8.301 l 16.604,0 C 8.302,-3.716 4.586,0 0,0" /></g><path
           id="path30"
           style="fill:#65686a;fill-opacity:1;fill-rule:nonzero;stroke:none"
           d="m 23.122,0.022 -16.604,0 0,5.269 16.604,0 0,-5.269 z" /><g
           transform="translate(0.0034)"
           id="g32"><path
             id="path34"
             style="fill:#65686a;fill-opacity:1;fill-rule:nonzero;stroke:none"
             d="M 0,0 -0.003,5.269 32.39,5.291 32.394,0.022 0,0 Z" /></g><g
           transform="translate(17.5908,6.1094)"
           id="g36"><path
             id="path38"
             style="fill:#65686a;fill-opacity:1;fill-rule:nonzero;stroke:none"
             d="m 0,0 c 0,-1.455 -1.179,-2.633 -2.633,-2.633 -1.456,0 -2.635,1.178 -2.635,2.633 0,1.455 1.179,2.635 2.635,2.635 C -1.179,2.635 0,1.455 0,0" /></g><g
           transform="translate(8.1416,22.6938)"
           id="g40"><path
             id="path42"
             style="fill:#65686a;fill-opacity:1;fill-rule:nonzero;stroke:none"
             d="M 0,0 -2.076,1.893 0.271,4.467 2.348,2.574 0,0 Z" /></g><g
           transform="translate(11.4854,19.7061)"
           id="g44"><path
             id="path46"
             style="fill:#65686a;fill-opacity:1;fill-rule:nonzero;stroke:none"
             d="M 0,0 -2.077,1.892 0.271,4.468 2.348,2.574 0,0 Z" /></g><g
           transform="translate(15.6084,20.4731)"
           id="g48"><path
             id="path50"
             style="fill:#65686a;fill-opacity:1;fill-rule:nonzero;stroke:none"
             d="M 0,0 -9.134,8.226 6.246,25.303 15.379,17.077 0,0 Z" /></g><g
           transform="translate(28.9595,33.7319)"
           id="g52"><path
             id="path54"
             style="fill:#65686a;fill-opacity:1;fill-rule:nonzero;stroke:none"
             d="m 0,0 c 0,-0.8 -0.649,-1.448 -1.448,-1.448 -0.801,0 -1.448,0.648 -1.448,1.448 0,0.8 0.647,1.449 1.448,1.449 C -0.649,1.449 0,0.8 0,0" /></g></g></g></g></svg>