<?xml version="1.0" encoding="UTF-8" standalone="no"?>
<!-- Created with Inkscape (http://www.inkscape.org/) -->

<svg
   xmlns:dc="http://purl.org/dc/elements/1.1/"
   xmlns:cc="http://creativecommons.org/ns#"
   xmlns:rdf="http://www.w3.org/1999/02/22-rdf-syntax-ns#"
   xmlns:svg="http://www.w3.org/2000/svg"
   xmlns="http://www.w3.org/2000/svg"
   xmlns:inkscape="http://www.inkscape.org/namespaces/inkscape"
   version="1.1"
   width="82.750877"
   height="76.754753"
   id="svg2"
   xml:space="preserve"><metadata
     id="metadata8"><rdf:RDF><cc:Work
         rdf:about=""><dc:format>image/svg+xml</dc:format><dc:type
           rdf:resource="http://purl.org/dc/dcmitype/StillImage" /></cc:Work></rdf:RDF></metadata><defs
     id="defs6"><clipPath
       id="clipPath16"><path
         d="m 0,61.404 66.201,0 L 66.201,0 0,0 0,61.404 z"
         inkscape:connector-curvature="0"
         id="path18" /></clipPath></defs><g
     transform="matrix(1.25,0,0,-1.25,0,76.75475)"
     id="g10"><g
       id="g12"><g
         clip-path="url(#clipPath16)"
         id="g14"><g
           transform="translate(0,39.8589)"
           id="g20"><path
             d="M 0,0 C 0.009,11.914 14.84,21.557 33.121,21.545 51.394,21.533 66.209,11.866 66.201,-0.047 66.192,-11.958 51.364,-21.599 33.088,-21.587 14.81,-21.574 -0.009,-11.912 0,0"
             inkscape:connector-curvature="0"
             id="path22"
             style="fill:#ecf0f1;fill-opacity:1;fill-rule:nonzero;stroke:none" /></g><g
           transform="translate(5.6689,31.0059)"
           id="g24"><path
             d="M 0,0 C 0.01,6.272 12.413,11.342 27.72,11.331 43.035,11.318 55.446,6.235 55.437,-0.036 55.437,-6.299 43.018,-11.379 27.703,-11.367 12.396,-11.357 0.001,-6.264 0,0"
             inkscape:connector-curvature="0"
             id="path26"
             style="fill:#dee1e2;fill-opacity:1;fill-rule:nonzero;stroke:none" /></g><g
           transform="translate(33.3892,42.0234)"
           id="g28"><path
             d="M 0,0 C 0,0 28.53,-0.942 27.717,-11.367 26.918,-21.582 -0.018,-22.699 -0.018,-22.699 L 0,0 z"
             inkscape:connector-curvature="0"
             id="path30"
             style="fill:#c4c4c4;fill-opacity:1;fill-rule:nonzero;stroke:none" /></g><g
           transform="translate(22.48,30.6807)"
           id="g32"><path
             d="M 0,0 21.265,-0.015 21.241,-30.681 -0.023,-30.665 0,0 z"
             inkscape:connector-curvature="0"
             id="path34"
             style="fill:#ecf0f1;fill-opacity:1;fill-rule:nonzero;stroke:none" /></g><path
           d="m 43.721,0 -10.62,0 0,30.674 10.62,0 0,-30.674 z"
           inkscape:connector-curvature="0"
           id="path36"
           style="fill:#d3d3d3;fill-opacity:1;fill-rule:nonzero;stroke:none" /><text
           transform="matrix(1,0,0,-1,0.2754,35.5229)"
           id="text38"><tspan
             x="0"
             y="0"
             id="tspan40"
             style="font-size:17.97319984px;font-variant:normal;font-weight:bold;font-stretch:normal;writing-mode:lr-tb;fill:#939393;fill-opacity:1;fill-rule:nonzero;stroke:none;font-family:PF DinText Pro;-inkscape-font-specification:PFDinTextPro-Bold">β</tspan></text>
</g></g><text
       transform="matrix(1,0,0,-1,10.0166,35.5229)"
       id="text42"><tspan
         x="0"
         y="0"
         id="tspan44"
         style="font-size:14.12180042px;font-variant:normal;font-weight:bold;font-stretch:normal;writing-mode:lr-tb;fill:#939393;fill-opacity:1;fill-rule:nonzero;stroke:none;font-family:PF DinText Pro;-inkscape-font-specification:PFDinTextPro-Bold">-</tspan></text>
<text
       transform="matrix(1,0,0,-1,16.23,35.5229)"
       id="text46"><tspan
         x="0 6.971034 13.595442 20.438095 27.062504 33.045013 40.362671"
         y="0"
         id="tspan48"
         style="font-size:12.8380003px;font-variant:normal;font-weight:bold;font-stretch:normal;writing-mode:lr-tb;fill:#939393;fill-opacity:1;fill-rule:nonzero;stroke:none;font-family:PF DinText Pro;-inkscape-font-specification:PFDinTextPro-Bold">каротин</tspan></text>
</g></svg>