<?xml version="1.0" encoding="UTF-8" standalone="no"?>
<!-- Created with Inkscape (http://www.inkscape.org/) -->

<svg
   xmlns:dc="http://purl.org/dc/elements/1.1/"
   xmlns:cc="http://creativecommons.org/ns#"
   xmlns:rdf="http://www.w3.org/1999/02/22-rdf-syntax-ns#"
   xmlns:svg="http://www.w3.org/2000/svg"
   xmlns="http://www.w3.org/2000/svg"
   xmlns:inkscape="http://www.inkscape.org/namespaces/inkscape"
   version="1.1"
   width="63.034"
   height="78.248878"
   id="svg2"
   xml:space="preserve"><metadata
     id="metadata8"><rdf:RDF><cc:Work
         rdf:about=""><dc:format>image/svg+xml</dc:format><dc:type
           rdf:resource="http://purl.org/dc/dcmitype/StillImage" /></cc:Work></rdf:RDF></metadata><defs
     id="defs6"><clipPath
       id="clipPath16"><path
         d="m 0,62.599 50.427,0 L 50.427,0 0,0 0,62.599 z"
         inkscape:connector-curvature="0"
         id="path18" /></clipPath></defs><g
     transform="matrix(1.25,0,0,-1.25,0,78.248875)"
     id="g10"><g
       id="g12"><g
         clip-path="url(#clipPath16)"
         id="g14"><g
           transform="translate(40.6523,32.7705)"
           id="g20"><path
             d="m 0,0 c 0,-16.478 -7.104,-29.834 -15.866,-29.834 -8.765,0 -15.869,13.356 -15.869,29.834 0,10.457 5.382,15.902 9.714,21.23 2.492,3.066 4.985,5.603 6.127,8.506 0.143,0.363 2.37,-4.613 4.355,-6.292 C -6.019,18.776 0,12.119 0,0"
             inkscape:connector-curvature="0"
             id="path22"
             style="fill:#acc931;fill-opacity:1;fill-rule:nonzero;stroke:none" /></g><g
           transform="translate(24.7588,62.5991)"
           id="g24"><path
             d="m 0,0 c 1.912,-1.839 3.111,-3.982 5.096,-5.662 5.52,-4.667 10.77,-12.047 10.77,-24.167 0,-16.477 -7.105,-29.834 -15.866,-29.834"
             inkscape:connector-curvature="0"
             id="path26"
             style="fill:#9eb226;fill-opacity:1;fill-rule:nonzero;stroke:none" /></g><g
           transform="translate(49.8237,26.2905)"
           id="g28"><path
             d="m 0,0 c -2.959,16.396 -18.23,29.643 -25.065,36.309 l 13.351,-62.6 C -3.523,-18.167 2.595,-14.37 0,0"
             inkscape:connector-curvature="0"
             id="path30"
             style="fill:#efe2ac;fill-opacity:1;fill-rule:nonzero;stroke:none" /></g><g
           transform="translate(0.6177,26.2876)"
           id="g32"><path
             d="M 0,0 C 3.203,16.268 17.752,29.68 24.141,36.219 L 11.471,-26.194 C 6.836,-22.165 -3.198,-16.269 0,0"
             inkscape:connector-curvature="0"
             id="path34"
             style="fill:#efe2ac;fill-opacity:1;fill-rule:nonzero;stroke:none" /></g></g></g><text
       transform="matrix(1,0,0,-1,7.9653,18.3599)"
       id="text36"><tspan
         x="0 19.586767"
         y="0"
         id="tspan38"
         style="font-size:28.71960068px;font-variant:normal;font-weight:bold;font-stretch:normal;writing-mode:lr-tb;fill:#939393;fill-opacity:1;fill-rule:nonzero;stroke:none;font-family:PF DinText Pro;-inkscape-font-specification:PFDinTextPro-Bold">Mg</tspan></text>
</g></svg>