<?xml version="1.0" encoding="UTF-8" standalone="no"?>
<!-- Created with Inkscape (http://www.inkscape.org/) -->

<svg
   xmlns:dc="http://purl.org/dc/elements/1.1/"
   xmlns:cc="http://creativecommons.org/ns#"
   xmlns:rdf="http://www.w3.org/1999/02/22-rdf-syntax-ns#"
   xmlns:svg="http://www.w3.org/2000/svg"
   xmlns="http://www.w3.org/2000/svg"
   xmlns:inkscape="http://www.inkscape.org/namespaces/inkscape"
   version="1.1"
   width="70.980247"
   height="77.629372"
   id="svg2"
   xml:space="preserve"><metadata
     id="metadata8"><rdf:RDF><cc:Work
         rdf:about=""><dc:format>image/svg+xml</dc:format><dc:type
           rdf:resource="http://purl.org/dc/dcmitype/StillImage" /></cc:Work></rdf:RDF></metadata><defs
     id="defs6"><clipPath
       id="clipPath16"><path
         d="m 0,62.104 56.784,0 L 56.784,0 0,0 0,62.104 z"
         inkscape:connector-curvature="0"
         id="path18" /></clipPath></defs><g
     transform="matrix(1.25,0,0,-1.25,0,77.629375)"
     id="g10"><g
       id="g12"><g
         clip-path="url(#clipPath16)"
         id="g14"><g
           transform="translate(0.0029,31.3975)"
           id="g20"><path
             d="M 0,0 C -0.207,-17.149 12.333,-31.206 28.012,-31.396 43.692,-31.587 56.57,-17.839 56.778,-0.688 56.985,16.459 44.444,30.515 28.764,30.704 13.086,30.896 0.208,17.148 0,0"
             inkscape:connector-curvature="0"
             id="path22"
             style="fill:#aa8f44;fill-opacity:1;fill-rule:nonzero;stroke:none" /></g><g
           transform="translate(13.7236,53.4395)"
           id="g24"><path
             d="M 0,0 C 0.287,-0.003 0.505,-1.228 0.486,-2.734 0.469,-4.239 0.221,-5.459 -0.065,-5.454 -0.353,-5.45 -0.57,-4.228 -0.553,-2.722 -0.534,-1.216 -0.287,0.003 0,0"
             inkscape:connector-curvature="0"
             id="path26"
             style="fill:#755c15;fill-opacity:1;fill-rule:nonzero;stroke:none" /></g><g
           transform="translate(8.8799,48.5732)"
           id="g28"><path
             d="M 0,0 C 0.288,-0.003 0.505,-1.228 0.487,-2.734 0.469,-4.238 0.221,-5.458 -0.065,-5.453 -0.352,-5.45 -0.57,-4.227 -0.552,-2.722 -0.534,-1.215 -0.287,0.004 0,0"
             inkscape:connector-curvature="0"
             id="path30"
             style="fill:#755c15;fill-opacity:1;fill-rule:nonzero;stroke:none" /></g><g
           transform="translate(16.8467,47.0991)"
           id="g32"><path
             d="M 0,0 C 0.286,-0.003 0.505,-1.229 0.486,-2.735 0.469,-4.239 0.222,-5.459 -0.066,-5.454 -0.354,-5.451 -0.57,-4.228 -0.553,-2.723 -0.535,-1.216 -0.287,0.003 0,0"
             inkscape:connector-curvature="0"
             id="path34"
             style="fill:#755c15;fill-opacity:1;fill-rule:nonzero;stroke:none" /></g><g
           transform="translate(4.125,39.5576)"
           id="g36"><path
             d="M 0,0 C 0.287,-0.003 0.506,-1.228 0.487,-2.734 0.469,-4.239 0.222,-5.458 -0.064,-5.453 -0.353,-5.45 -0.57,-4.228 -0.552,-2.722 -0.533,-1.216 -0.286,0.004 0,0"
             inkscape:connector-curvature="0"
             id="path38"
             style="fill:#755c15;fill-opacity:1;fill-rule:nonzero;stroke:none" /></g><g
           transform="translate(10.4414,39.5576)"
           id="g40"><path
             d="M 0,0 C 0.287,-0.003 0.505,-1.228 0.486,-2.734 0.468,-4.239 0.221,-5.458 -0.065,-5.453 -0.353,-5.45 -0.571,-4.228 -0.552,-2.722 -0.534,-1.216 -0.287,0.004 0,0"
             inkscape:connector-curvature="0"
             id="path42"
             style="fill:#755c15;fill-opacity:1;fill-rule:nonzero;stroke:none" /></g><g
           transform="translate(5.166,27.0215)"
           id="g44"><path
             d="M 0,0 C 0.287,-0.003 0.505,-1.228 0.487,-2.734 0.469,-4.238 0.222,-5.459 -0.065,-5.453 -0.353,-5.451 -0.57,-4.227 -0.552,-2.723 -0.534,-1.215 -0.287,0.004 0,0"
             inkscape:connector-curvature="0"
             id="path46"
             style="fill:#755c15;fill-opacity:1;fill-rule:nonzero;stroke:none" /></g><g
           transform="translate(9.9209,18.0293)"
           id="g48"><path
             d="M 0,0 C 0.287,-0.002 0.505,-1.227 0.487,-2.734 0.469,-4.238 0.222,-5.459 -0.065,-5.453 -0.352,-5.449 -0.571,-4.227 -0.552,-2.723 -0.534,-1.215 -0.287,0.004 0,0"
             inkscape:connector-curvature="0"
             id="path50"
             style="fill:#755c15;fill-opacity:1;fill-rule:nonzero;stroke:none" /></g><g
           transform="translate(14.7646,12.5762)"
           id="g52"><path
             d="M 0,0 C 0.287,-0.004 0.505,-1.229 0.486,-2.734 0.469,-4.238 0.222,-5.459 -0.065,-5.453 -0.353,-5.451 -0.571,-4.227 -0.553,-2.723 -0.534,-1.217 -0.287,0.004 0,0"
             inkscape:connector-curvature="0"
             id="path54"
             style="fill:#755c15;fill-opacity:1;fill-rule:nonzero;stroke:none" /></g><g
           transform="translate(10.9619,27.0215)"
           id="g56"><path
             d="M 0,0 C 0.287,-0.003 0.505,-1.228 0.486,-2.734 0.468,-4.238 0.221,-5.459 -0.066,-5.453 -0.353,-5.451 -0.571,-4.227 -0.552,-2.723 -0.534,-1.215 -0.287,0.004 0,0"
             inkscape:connector-curvature="0"
             id="path58"
             style="fill:#755c15;fill-opacity:1;fill-rule:nonzero;stroke:none" /></g><g
           transform="translate(15.2842,32.7969)"
           id="g60"><path
             d="M 0,0 C 0.287,-0.004 0.506,-1.229 0.487,-2.734 0.469,-4.24 0.222,-5.459 -0.064,-5.454 -0.352,-5.451 -0.57,-4.229 -0.552,-2.723 -0.534,-1.217 -0.286,0.002 0,0"
             inkscape:connector-curvature="0"
             id="path62"
             style="fill:#755c15;fill-opacity:1;fill-rule:nonzero;stroke:none" /></g><g
           transform="translate(15.8047,21.6035)"
           id="g64"><path
             d="M 0,0 C 0.287,-0.004 0.505,-1.229 0.487,-2.734 0.469,-4.238 0.221,-5.459 -0.065,-5.455 -0.353,-5.451 -0.571,-4.229 -0.552,-2.723 -0.534,-1.217 -0.287,0.002 0,0"
             inkscape:connector-curvature="0"
             id="path66"
             style="fill:#755c15;fill-opacity:1;fill-rule:nonzero;stroke:none" /></g><g
           transform="translate(45.5859,53.4395)"
           id="g68"><path
             d="M 0,0 C 0.287,-0.003 0.505,-1.228 0.486,-2.734 0.468,-4.239 0.221,-5.459 -0.066,-5.454 -0.353,-5.45 -0.571,-4.228 -0.552,-2.722 -0.534,-1.216 -0.287,0.003 0,0"
             inkscape:connector-curvature="0"
             id="path70"
             style="fill:#755c15;fill-opacity:1;fill-rule:nonzero;stroke:none" /></g><g
           transform="translate(49.5107,47.9521)"
           id="g72"><path
             d="M 0,0 C 0.287,-0.003 0.505,-1.228 0.487,-2.734 0.469,-4.239 0.222,-5.459 -0.065,-5.454 -0.353,-5.45 -0.571,-4.228 -0.552,-2.722 -0.534,-1.216 -0.287,0.003 0,0"
             inkscape:connector-curvature="0"
             id="path74"
             style="fill:#755c15;fill-opacity:1;fill-rule:nonzero;stroke:none" /></g><g
           transform="translate(53.1621,40.2144)"
           id="g76"><path
             d="M 0,0 C 0.286,-0.003 0.505,-1.229 0.485,-2.734 0.468,-4.239 0.221,-5.458 -0.066,-5.453 -0.354,-5.451 -0.571,-4.228 -0.553,-2.722 -0.534,-1.216 -0.287,0.003 0,0"
             inkscape:connector-curvature="0"
             id="path78"
             style="fill:#755c15;fill-opacity:1;fill-rule:nonzero;stroke:none" /></g><g
           transform="translate(53.6816,31.1465)"
           id="g80"><path
             d="M 0,0 C 0.286,-0.004 0.505,-1.229 0.486,-2.734 0.469,-4.24 0.222,-5.459 -0.065,-5.455 -0.354,-5.451 -0.57,-4.228 -0.553,-2.723 -0.534,-1.217 -0.286,0.002 0,0"
             inkscape:connector-curvature="0"
             id="path82"
             style="fill:#755c15;fill-opacity:1;fill-rule:nonzero;stroke:none" /></g><g
           transform="translate(51.376,23.1895)"
           id="g84"><path
             d="M 0,0 C 0.287,-0.004 0.505,-1.229 0.486,-2.736 0.469,-4.24 0.222,-5.461 -0.066,-5.455 -0.353,-5.451 -0.57,-4.229 -0.553,-2.725 -0.534,-1.217 -0.287,0.002 0,0"
             inkscape:connector-curvature="0"
             id="path86"
             style="fill:#755c15;fill-opacity:1;fill-rule:nonzero;stroke:none" /></g><g
           transform="translate(47.8584,17.2168)"
           id="g88"><path
             d="M 0,0 C 0.287,-0.004 0.505,-1.229 0.486,-2.734 0.468,-4.238 0.221,-5.459 -0.066,-5.453 -0.353,-5.451 -0.571,-4.227 -0.552,-2.723 -0.534,-1.215 -0.287,0.004 0,0"
             inkscape:connector-curvature="0"
             id="path90"
             style="fill:#755c15;fill-opacity:1;fill-rule:nonzero;stroke:none" /></g><g
           transform="translate(43.3164,11.7637)"
           id="g92"><path
             d="M 0,0 C 0.288,-0.004 0.505,-1.229 0.486,-2.734 0.468,-4.24 0.221,-5.459 -0.066,-5.453 -0.352,-5.449 -0.571,-4.229 -0.552,-2.723 -0.534,-1.217 -0.287,0.002 0,0"
             inkscape:connector-curvature="0"
             id="path94"
             style="fill:#755c15;fill-opacity:1;fill-rule:nonzero;stroke:none" /></g><g
           transform="translate(48.3789,29.6592)"
           id="g96"><path
             d="M 0,0 C 0.286,-0.003 0.505,-1.229 0.485,-2.734 0.468,-4.239 0.221,-5.458 -0.066,-5.452 -0.353,-5.448 -0.571,-4.228 -0.553,-2.722 -0.534,-1.216 -0.287,0.003 0,0"
             inkscape:connector-curvature="0"
             id="path98"
             style="fill:#755c15;fill-opacity:1;fill-rule:nonzero;stroke:none" /></g><g
           transform="translate(41.3359,48.5732)"
           id="g100"><path
             d="M 0,0 C 0.287,-0.003 0.506,-1.228 0.486,-2.734 0.469,-4.238 0.222,-5.458 -0.065,-5.453 -0.353,-5.45 -0.57,-4.227 -0.552,-2.722 -0.533,-1.215 -0.286,0.004 0,0"
             inkscape:connector-curvature="0"
             id="path102"
             style="fill:#755c15;fill-opacity:1;fill-rule:nonzero;stroke:none" /></g><g
           transform="translate(47.3379,41.645)"
           id="g104"><path
             d="M 0,0 C 0.287,-0.003 0.505,-1.228 0.486,-2.734 0.468,-4.238 0.221,-5.459 -0.065,-5.454 -0.353,-5.45 -0.571,-4.228 -0.552,-2.722 -0.534,-1.215 -0.287,0.003 0,0"
             inkscape:connector-curvature="0"
             id="path106"
             style="fill:#755c15;fill-opacity:1;fill-rule:nonzero;stroke:none" /></g><g
           transform="translate(42.2764,36.8306)"
           id="g108"><path
             d="M 0,0 C 0.287,-0.002 0.504,-1.228 0.486,-2.735 0.469,-4.239 0.221,-5.458 -0.066,-5.453 -0.353,-5.45 -0.571,-4.227 -0.553,-2.721 -0.535,-1.215 -0.288,0.003 0,0"
             inkscape:connector-curvature="0"
             id="path110"
             style="fill:#755c15;fill-opacity:1;fill-rule:nonzero;stroke:none" /></g><g
           transform="translate(41.8564,25.0352)"
           id="g112"><path
             d="M 0,0 C 0.286,-0.004 0.506,-1.229 0.486,-2.734 0.469,-4.238 0.222,-5.459 -0.065,-5.453 -0.354,-5.449 -0.57,-4.227 -0.553,-2.723 -0.534,-1.217 -0.287,0.004 0,0"
             inkscape:connector-curvature="0"
             id="path114"
             style="fill:#755c15;fill-opacity:1;fill-rule:nonzero;stroke:none" /></g><path
           d="m 32.487,0.355 -8.19,0 0,61.426 8.19,0 0,-61.426 z"
           inkscape:connector-curvature="0"
           id="path116"
           style="fill:#755c15;fill-opacity:1;fill-rule:nonzero;stroke:none" /></g></g><text
       transform="matrix(1,0,0,-1,14.6875,21.4033)"
       id="text118"><tspan
         x="0 14.187483"
         y="0"
         id="tspan120"
         style="font-size:28.71960068px;font-variant:normal;font-weight:bold;font-stretch:normal;writing-mode:lr-tb;fill:#cecece;fill-opacity:1;fill-rule:nonzero;stroke:none;font-family:PF DinText Pro;-inkscape-font-specification:PFDinTextPro-Bold">Se</tspan></text>
</g></svg>