<?xml version="1.0" encoding="UTF-8" standalone="no"?>
<svg
   xmlns:dc="http://purl.org/dc/elements/1.1/"
   xmlns:cc="http://creativecommons.org/ns#"
   xmlns:rdf="http://www.w3.org/1999/02/22-rdf-syntax-ns#"
   xmlns:svg="http://www.w3.org/2000/svg"
   xmlns="http://www.w3.org/2000/svg"
   viewBox="0 0 35.994801 83.254532"
   height="83.254532"
   width="35.994801"
   xml:space="preserve"
   version="1.1"
   id="svg2"><metadata
     id="metadata8"><rdf:RDF><cc:Work
         rdf:about=""><dc:format>image/svg+xml</dc:format><dc:type
           rdf:resource="http://purl.org/dc/dcmitype/StillImage" /></cc:Work></rdf:RDF></metadata><defs
     id="defs6"><clipPath
       id="clipPath16"
       clipPathUnits="userSpaceOnUse"><path
         id="path18"
         d="m 0,62.441 26.996,0 L 26.996,0 0,0 0,62.441 Z" /></clipPath></defs><g
     transform="matrix(1.3333333,0,0,-1.3333333,0,83.254533)"
     id="g10"><g
       id="g12"><g
         clip-path="url(#clipPath16)"
         id="g14"><g
           transform="translate(5.5859,31.2227)"
           id="g20"><path
             id="path22"
             style="fill:#edce35;fill-opacity:1;fill-rule:nonzero;stroke:none"
             d="m 0,0 c 0,-17.244 3.451,-31.223 7.707,-31.223 l 0,62.441 C 3.451,31.218 0,17.242 0,0" /></g><g
           transform="translate(21,31.2227)"
           id="g24"><path
             id="path26"
             style="fill:#ddc514;fill-opacity:1;fill-rule:nonzero;stroke:none"
             d="m 0,0 c 0,17.242 -3.452,31.218 -7.707,31.218 l 0,-62.441 C -3.452,-31.223 0,-17.244 0,0" /></g><text
           id="text28"
           style="font-variant:normal;font-weight:bold;font-stretch:normal;font-size:28.71960068px;font-family:'PF DinText Pro';-inkscape-font-specification:PFDinTextPro-Bold;writing-mode:lr-tb;fill:#939393;fill-opacity:1;fill-rule:nonzero;stroke:none"
           transform="matrix(1,0,0,-1,0,19.9355)"><tspan
             id="tspan30"
             y="0"
             x="0 12.895101">Zn</tspan></text>
</g></g></g></svg>