<?xml version="1.0" encoding="UTF-8" standalone="no"?>
<svg
   xmlns:dc="http://purl.org/dc/elements/1.1/"
   xmlns:cc="http://creativecommons.org/ns#"
   xmlns:rdf="http://www.w3.org/1999/02/22-rdf-syntax-ns#"
   xmlns:svg="http://www.w3.org/2000/svg"
   xmlns="http://www.w3.org/2000/svg"
   viewBox="0 0 370.53867 483.67599"
   height="483.67599"
   width="370.53867"
   xml:space="preserve"
   version="1.1"
   id="svg2"><metadata
     id="metadata8"><rdf:RDF><cc:Work
         rdf:about=""><dc:format>image/svg+xml</dc:format><dc:type
           rdf:resource="http://purl.org/dc/dcmitype/StillImage" /></cc:Work></rdf:RDF></metadata><defs
     id="defs6"><clipPath
       id="clipPath16"
       clipPathUnits="userSpaceOnUse"><path
         id="path18"
         d="m 0,362.757 277.904,0 L 277.904,0 0,0 0,362.757 Z" /></clipPath></defs><g
     transform="matrix(1.3333333,0,0,-1.3333333,0,483.676)"
     id="g10"><g
       id="g12"><g
         clip-path="url(#clipPath16)"
         id="g14"><g
           transform="translate(214.531,211.9565)"
           id="g20"><path
             id="path22"
             style="
            fill:#27538c;fill-opacity:1;fill-rule:nonzero;stroke:none"
             d="m 0,0 c -10.133,-11.611 -23.535,-17.241 -47,-17.241 l -101.634,0 0,0.001 -2.523,0 0,129.48 103.357,0 c 16.532,0 27.998,-1.056 33.864,-3.167 9.711,-6.161 17.332,-10.907 22.932,-21.463 5.866,-10.907 8.8,-23.925 8.8,-38.703 C 17.796,27.796 9.599,11.259 0,0 m 53.046,95.208 c -5.866,15.13 -14.406,24.143 -23.472,32.587 -9.066,8.445 -25.111,16.672 -38.443,19.487 -9.6,2.463 -23.732,3.518 -41.864,3.518 l -140.796,0 0,-168.04 -23.002,0 0,-37.688 23.002,0 0,-36.276 -23.002,0 0,-37.687 23.002,0 0,-83.065 40.372,0 0,83.065 144.585,0 0,37.687 -144.585,0 0,36.276 2.523,0 101.1,0 c 38.931,0 66.781,10.889 84.15,32.019 16.603,20.197 26.757,37.895 26.757,68.858 0,17.944 -4.994,34.481 -10.327,49.259" /></g></g></g></g></svg>